<?xml version="1.0" encoding="UTF-8"?><svg id="Layer_2" xmlns="http://www.w3.org/2000/svg" xmlns:xlink="http://www.w3.org/1999/xlink" viewBox="0 0 785.07 785.07"><defs><style>.cls-1{fill:url(#linear-gradient);stroke:url(#linear-gradient-2);stroke-width:35px;}.cls-1,.cls-2{stroke-miterlimit:10;}.cls-2{fill:url(#linear-gradient-3);stroke:#000;}.cls-3{fill:#000;}</style><linearGradient id="linear-gradient" x1="17.5" y1="392.53" x2="767.57" y2="392.53" gradientUnits="userSpaceOnUse"><stop offset="0" stop-color="#FFF"/><stop offset=".36" stop-color="#FFF"/><stop offset=".72" stop-color="#FFF"/><stop offset="1" stop-color="#FFF"/></linearGradient><linearGradient id="linear-gradient-2" x1="0" x2="785.07" xlink:href="#linear-gradient"/><linearGradient id="linear-gradient-3" x1="95.67" y1="143.85" x2="615.64" y2="680.55" xlink:href="#linear-gradient"/></defs><g id="Layer_1-2"><g><g><circle class="cls-1" cx="392.53" cy="392.53" r="375.03"/><path class="cls-3" d="m767.57,392.19c0,1.98-.02,3.96-.05,5.94-.09,6.02-.33,12.01-.7,17.97-.06,1.03-.13,2.05-.21,3.08-.21,2.98-.46,5.96-.75,8.92-.07.84-.15,1.67-.24,2.51-.54,5.34-1.19,10.65-1.97,15.92-.22,1.58-.46,3.15-.71,4.72-.45,2.91-.95,5.81-1.48,8.69-.11.64-.23,1.27-.35,1.9-1.41,7.52-3.04,14.96-4.9,22.31-.65,2.57-1.32,5.13-2.03,7.68-1.58,5.8-3.31,11.54-5.18,17.22-.39,1.22-.8,2.44-1.21,3.65-.15.46-.31.91-.48,1.36,0,.01,0,.02-.01.03-.64,1.91-1.31,3.8-2,5.69-2.48,6.88-5.16,13.67-8.04,20.35-.35.84-.72,1.67-1.09,2.5-4.34,9.93-9.11,19.63-14.27,29.08-1.11,2.03-2.24,4.05-3.39,6.05-1.33,2.35-2.69,4.67-4.08,6.98-.37.64-.76,1.27-1.14,1.9-4.55,7.5-9.36,14.82-14.41,21.95-.7.98-1.4,1.96-2.11,2.94-1.06,1.48-2.14,2.95-3.23,4.41-.13.18-.26.36-.39.53-4.4,5.89-8.97,11.65-13.71,17.26-.78.93-1.57,1.86-2.37,2.78-3.09,3.6-6.25,7.15-9.48,10.63-.59.64-1.18,1.27-1.78,1.9-6.8,7.24-13.88,14.2-21.23,20.87-.65.59-1.31,1.19-1.97,1.78-1.98,1.77-3.97,3.52-5.99,5.24-.53.47-1.07.92-1.61,1.37-7.53,6.4-15.32,12.5-23.35,18.28h0c-.98.72-1.96,1.42-2.95,2.11-1.25.89-2.5,1.77-3.77,2.64-.68.47-1.36.93-2.04,1.39-2.14,1.46-4.3,2.89-6.47,4.29-.61.4-1.22.8-1.83,1.18-1.3.84-2.6,1.66-3.9,2.47-.42.27-.84.53-1.26.78-10.96,6.78-22.3,13.01-33.97,18.65-.7.33-1.4.67-2.11,1-2.22,1.06-4.45,2.1-6.7,3.11-.73.33-1.46.66-2.19.97-2.18.98-4.37,1.92-6.57,2.85-.66.28-1.32.55-1.98.82-1.24.52-2.49,1.03-3.74,1.52-1.95.79-3.91,1.56-5.88,2.31-22.08,8.44-45.16,14.84-69.01,18.99-.7.12-1.4.24-2.1.36-2.34.39-4.68.77-7.04,1.11-.72.11-1.44.22-2.16.32-2.18.31-4.36.6-6.55.87-.73.1-1.45.19-2.18.26-2.14.27-4.28.5-6.43.72-.7.07-1.4.14-2.11.2-3.69.36-7.4.66-11.13.9-.7.05-1.4.1-2.1.13-3.69.23-7.4.4-11.13.51-.7.03-1.41.05-2.11.07-2.24.05-4.48.09-6.72.1-.74.01-1.47.02-2.21.02h-.77c-2.05,0-4.1-.02-6.15-.05-.71-.01-1.43-.02-2.14-.04-.65-.01-1.3-.03-1.95-.05-.74-.02-1.47-.04-2.21-.07-2.33-.07-4.65-.17-6.96-.29-.71-.03-1.42-.07-2.13-.12-2.12-.11-4.24-.25-6.35-.4-.7-.05-1.41-.11-2.11-.17-4.11-.32-8.2-.71-12.28-1.17-.75-.08-1.49-.17-2.24-.26-2.23-.26-4.45-.54-6.67-.85-.7-.09-1.39-.19-2.08-.29-.85-.11-1.7-.24-2.54-.37-.79-.11-1.59-.23-2.38-.36-1.83-.28-3.66-.58-5.49-.9-.71-.12-1.42-.24-2.13-.37-1.42-.25-2.83-.5-4.24-.78-2.4-.44-4.78-.92-7.16-1.42-20.28-4.24-39.95-10.12-58.87-17.5-.88-.33-1.74-.67-2.61-1.03-.21-.07-.41-.15-.61-.24-.71-.27-1.41-.56-2.11-.85-4.12-1.67-8.2-3.42-12.24-5.24-.76-.34-1.53-.69-2.29-1.04-1.98-.9-3.94-1.82-5.9-2.76-.62-.29-1.23-.59-1.84-.89-11.46-5.57-22.59-11.7-33.36-18.37-.95-.58-1.9-1.17-2.84-1.78-.37-.22-.73-.45-1.1-.69-1.13-.71-2.25-1.43-3.37-2.18-2.24-1.44-4.46-2.92-6.66-4.42-.71-.48-1.41-.96-2.11-1.45-.7-.48-1.4-.97-2.09-1.47-.35-.23-.7-.48-1.05-.73-8.22-5.81-16.2-11.94-23.91-18.39-.76-.62-1.51-1.26-2.26-1.9-2.8-2.36-5.56-4.78-8.28-7.23-.71-.63-1.41-1.27-2.11-1.91-.47-.42-.94-.85-1.4-1.29-.49-.45-.98-.9-1.47-1.36-6.05-5.63-11.92-11.47-17.58-17.51-.6-.63-1.19-1.26-1.78-1.9-1.14-1.22-2.26-2.45-3.37-3.69-.7-.76-1.38-1.52-2.07-2.29-1.57-1.78-3.13-3.57-4.66-5.37-.45-.51-.88-1.02-1.31-1.53-4.53-5.35-8.9-10.82-13.12-16.42-.48-.63-.95-1.26-1.42-1.9-2.81-3.75-5.53-7.57-8.19-11.43-.46-.66-.91-1.32-1.35-1.98-3.54-5.2-6.94-10.5-10.21-15.89-.39-.63-.77-1.26-1.14-1.9-.19-.29-.36-.59-.53-.88-.72-1.19-1.42-2.38-2.11-3.58-4.71-8.09-9.11-16.38-13.21-24.84-.31-.63-.61-1.26-.91-1.9-4.54-9.5-8.68-19.22-12.42-29.14-.34-.9-.68-1.8-1-2.7-.53-1.43-1.05-2.86-1.55-4.3-.55-1.51-1.07-3.03-1.59-4.56-2.22-6.52-4.26-13.12-6.11-19.8-.18-.63-.36-1.26-.52-1.9-.1-.33-.19-.67-.28-1.01-.74-2.72-1.44-5.45-2.11-8.19-.14-.55-.27-1.11-.4-1.66-.15-.59-.29-1.18-.42-1.77-6.54-27.71-9.99-56.61-9.99-86.32s3.46-58.63,9.99-86.35c.15-.63.3-1.27.46-1.9.11-.5.23-1,.36-1.49.67-2.75,1.37-5.48,2.11-8.2,2.1-7.8,4.45-15.5,7.04-23.08.47-1.38.94-2.75,1.43-4.12.65-1.83,1.31-3.66,1.99-5.48.28-.78.57-1.55.87-2.32,3.65-9.65,7.7-19.1,12.11-28.34.41-.87.83-1.74,1.25-2.6,2.94-6.04,6.03-11.98,9.29-17.83,0-.05.04-.09.07-.14,1.15-2.09,2.33-4.17,3.54-6.23.69-1.2,1.39-2.4,2.11-3.59,3.89-6.54,7.98-12.95,12.26-19.23,1.77-2.6,3.57-5.17,5.42-7.72.72-1.03,1.46-2.05,2.22-3.07,1.1-1.51,2.22-3.01,3.36-4.5,4.16-5.51,8.48-10.9,12.94-16.16,1.15-1.37,2.32-2.72,3.5-4.06,2.61-3,5.27-5.96,7.97-8.87.31-.33.63-.67.94-1h0c5.59-5.98,11.38-11.78,17.37-17.39.64-.6,1.28-1.19,1.92-1.78.56-.53,1.12-1.05,1.69-1.56.7-.64,1.4-1.28,2.11-1.91,2.64-2.38,5.33-4.73,8.04-7.02.99-.85,1.98-1.68,2.97-2.5,7.42-6.18,15.08-12.07,22.97-17.67.26-.18.52-.36.78-.54.94-.67,1.88-1.33,2.83-1.98.7-.49,1.4-.97,2.11-1.45,3.66-2.5,7.37-4.93,11.12-7.29.7-.45,1.41-.9,2.11-1.33,11.11-6.91,22.61-13.26,34.46-19,.64-.31,1.28-.62,1.93-.92,1.77-.85,3.54-1.68,5.32-2.49.79-.37,1.57-.72,2.36-1.08,4.06-1.83,8.16-3.58,12.3-5.26.7-.29,1.4-.58,2.11-.85,20.03-8.03,40.91-14.37,62.48-18.85,2.29-.48,4.6-.94,6.91-1.37,2.62-.5,5.25-.97,7.9-1.41.7-.11,1.4-.23,2.11-.34,3.69-.59,7.4-1.13,11.13-1.62.7-.09,1.4-.18,2.1-.26,5.52-.69,11.08-1.26,16.67-1.69.7-.06,1.41-.12,2.11-.17,2.11-.15,4.23-.29,6.35-.4.71-.05,1.41-.09,2.12-.12,2.32-.12,4.65-.22,6.99-.29.74-.03,1.48-.05,2.22-.07.63-.02,1.27-.04,1.9-.05.71-.02,1.41-.03,2.12-.04,2.06-.03,4.12-.05,6.19-.05h.81c.73,0,1.47.01,2.2.02,2.23.01,4.46.05,6.69.1.7.02,1.41.04,2.11.07,2.12.06,4.23.14,6.34.25.71.03,1.43.06,2.14.11,2.33.11,4.65.26,6.97.43.74.05,1.47.1,2.2.16,2.25.17,4.48.37,6.71.59.71.06,1.41.13,2.11.2,3.73.38,7.43.81,11.12,1.3.71.09,1.41.18,2.11.28,3.73.51,7.44,1.08,11.13,1.7l2.1.36c.77.13,1.53.27,2.3.41.31.05.62.11.93.17,22.39,4.09,44.08,10.18,64.89,18.07,2.44.92,4.86,1.86,7.26,2.84,2.5,1,4.99,2.04,7.46,3.1.71.3,1.41.6,2.11.91,3.74,1.63,7.45,3.32,11.12,5.07.71.33,1.41.66,2.11,1,.03.02.06.03.08.04,1.05.51,2.1,1.02,3.14,1.54,13.8,6.83,27.13,14.49,39.91,22.9.7.47,1.41.94,2.11,1.41,2.69,1.79,5.35,3.62,7.99,5.49.83.58,1.66,1.17,2.48,1.78,8.1,5.8,15.96,11.94,23.56,18.37.54.46,1.07.91,1.6,1.37,2.09,1.79,4.17,3.61,6.22,5.44.63.56,1.26,1.13,1.88,1.69,1.17,1.06,2.33,2.13,3.48,3.2.39.37.79.73,1.18,1.11,5.52,5.18,10.88,10.52,16.08,16.02.57.6,1.14,1.2,1.7,1.81,3.5,3.75,6.93,7.58,10.26,11.47.55.63,1.09,1.26,1.63,1.9,5.17,6.1,10.15,12.37,14.93,18.8.13.17.26.35.39.53.91,1.22,1.81,2.45,2.69,3.69.72.98,1.42,1.95,2.11,2.94.79,1.11,1.57,2.22,2.34,3.34.3.43.59.86.88,1.29,3.76,5.48,7.38,11.07,10.85,16.75,1.2,1.97,2.38,3.95,3.54,5.94h0c.73,1.24,1.45,2.48,2.15,3.73.92,1.6,1.82,3.21,2.7,4.82,5.34,9.7,10.26,19.67,14.74,29.87.28.63.56,1.26.82,1.9,2.98,6.85,5.74,13.82,8.3,20.88,1.23,3.39,2.42,6.8,3.54,10.24,1.86,5.61,3.58,11.28,5.17,17,.78,2.79,1.53,5.6,2.23,8.42,1.92,7.56,3.6,15.21,5.04,22.95.12.59.23,1.19.33,1.79.51,2.79.99,5.59,1.43,8.41.21,1.3.41,2.6.6,3.91.78,5.3,1.46,10.64,2,16.02.1.83.18,1.66.25,2.49.3,3.01.56,6.03.78,9.06.07.99.14,1.99.2,2.98.39,5.93.64,11.9.74,17.91.04,2.23.06,4.46.06,6.69Z"/></g><path class="cls-2" d="m328.08,448.49l-15.5-7.76,12.88,6.37,2.62,1.39Zm4.42-7.93c-.2.11-.41.22-.62.32.28.14.55.28.82.42l-.2-.74Zm120.06,0l-.2.74c.27-.14.55-.28.83-.42-.21-.1-.42-.21-.63-.32Zm0,0l-.2.74c.27-.14.55-.28.83-.42-.21-.1-.42-.21-.63-.32Zm-134.15,15.27c4.51,6.18,6.79,13.1,6.79,20.57s-.23,14.24-.67,20.6c-.46,6.45-.95,12.76-1.49,19.32-.03.33-.13,2.1-.24,10.69-.07,4.42-.12,9.83-.17,15.82-.13,14.72-.25,35.68-.32,56.06-.02,6.55-.04,12.3-.06,16.61l-.1,20.59-39.17-39.71-101.1,36.98,67.54-134.34,19.15,6.62-33.18-37.58-87.96,63.69-.22-.22-46.53,30.8,22.67-60.14,117.4-223.29,43.54,62.47-9.43-34.32,41.83-86.74,5.66,17.66c.01,5.3.08,29.41.08,29.41.24,81.09.48,96.24.61,98.06.37,4.46.7,8.72,1.01,12.86l.1,1.35c.13,1.77.26,3.52.38,5.25.44,6.47.67,13.46.67,20.77,0,4.88-.99,9.58-2.93,13.98-.5,1.15-1.08,2.23-1.76,3.29-2.17,3.35-5.05,6.1-8.85,8.46-3.88,2.41-8.74,3.85-14.76,4.37v10.19c10.11.83,17.33,4.14,21.51,9.87Zm-1.72,20.57c0-5.72-1.69-10.81-5.15-15.56-3.19-4.37-9.91-6.59-19.96-6.59h-3.19v-26.77h3.19c6.82,0,12.06-1.11,15.59-3.3,2.7-1.68,4.73-3.59,6.17-5.81.44-.69.82-1.4,1.15-2.15,1.46-3.31,2.2-6.86,2.2-10.55,0-7.13-.22-13.92-.65-20.18-.15-2.16-.31-4.34-.47-6.55-.31-4.12-.64-8.36-1.01-12.82-.29-3.43-.5-51.83-.64-98.72-.03-10.02-.05-19.97-.08-29.4l-29.99,69.67,21.75,79.14-63.83-91.58-110.65,210.45-13.21,35.04,30.41-20.13h.01s88.32-63.95,88.32-63.95l59.68,67.6-42.66-14.75-54.55,108.51,86.07-31.49,28.55,28.95c.02-4.31.04-10.05.06-16.6.06-16.75.17-38.83.32-56.1.05-6.02.1-11.45.17-15.86.08-5.96.17-10.07.27-11.28.57-6.88,1.05-13.16,1.48-19.21.43-6.15.65-12.88.65-20.01Zm155.87-35.67l-15.69-7.52c-.13-.06-.25-.13-.38-.19l16.07,7.71Zm-143.94-7.74l-.21.12c-.07.03-.14.07-.22.11l-15.61,7.51,16.04-7.74Zm124.57,7.89c-.28.14-.56.28-.83.42l.2-.74c.21.11.42.22.63.32Zm19.37-.15l-15.58,7.76c-.22.11-.43.22-.65.33-.02.01-.05.03-.07.04-3.15,1.67-5.49,3.91-7.17,6.83-2.81,4.86-4.23,12.38-4.23,22.36,0,10.54.27,20.45.8,29.46.42,6.88.66,82.17.77,126.44,0,0,.04,17.42.05,21.83v2.47l-1.32,2.1-52.63,83.2-18.88-29.87-35.04-55.43v-2.47c.01-4.67.02-9.97.03-15.72l.02-6.1c.14-54.3.38-120.32.74-126.46.55-8.94.83-18.84.83-29.45,0-9.96-1.42-17.48-4.23-22.35-1.67-2.89-3.99-5.1-7.06-6.76-.07-.05-.13-.08-.2-.12h-.01l-.46-.24-.07-.03-.12-.06-2.62-1.39-12.88-6.37,15.61-7.51c.08-.04.15-.08.22-.11l.21-.12c.41-.21.8-.42,1.18-.65,2.67-1.58,4.72-3.62,6.23-6.19,2.78-4.72,4.2-12.29,4.2-22.46,0-10.81-.28-20.83-.83-29.77-.29-4.89-.54-66.7-.74-183.72l-.02-12.57c-.01-6.05-.02-11.72-.03-16.9v-1.76l35.47-82.4,18.45-39.62,18.51,39.73,35.42,82.28v5.5c-.02,7.64-.03,16.33-.04,25.72-.09,52.89-.33,176.66-.76,183.74-.53,8.99-.8,19.02-.8,29.77,0,10.17,1.41,17.74,4.2,22.49,1.72,2.91,4.14,5.15,7.38,6.81l.05.03c.13.06.25.13.38.19l15.69,7.52Zm-34.59,215.06c-.01-5.92-.03-13.39-.05-21.82-.11-45.72-.36-119.54-.75-125.96-.54-9.1-.82-19.18-.82-29.96,0-9.04,1.05-16.3,3.21-22.01.62-1.66,1.34-3.18,2.15-4.59,2.49-4.33,6.06-7.73,10.65-10.15.27-.14.55-.28.83-.42-.21-.1-.42-.21-.63-.32-2.84-1.45-5.28-3.27-7.33-5.43-1.34-1.4-2.51-2.96-3.51-4.65-3.61-6.15-5.37-14.91-5.37-26.79,0-11,.28-21.19.82-30.29.38-6.24.63-113.9.74-183.23h0c.02-10.96.03-20.96.04-29.45h0s-34.67-80.56-34.67-80.56l-10.75-23.07-10.74,23.07-34.68,80.55c.02,8.63.03,18.62.05,29.48.12,70.39.36,177.09.73,183.21.56,9.15.84,19.34.84,30.29,0,11.87-1.76,20.64-5.38,26.79-1,1.69-2.17,3.25-3.5,4.65-2.06,2.16-4.51,3.98-7.35,5.43-.2.11-.41.22-.62.32.28.14.55.28.82.42,4.59,2.42,8.16,5.83,10.66,10.15.82,1.42,1.54,2.96,2.16,4.64,2.16,5.72,3.21,12.96,3.21,21.96,0,10.73-.28,20.82-.84,29.96-.37,6.16-.61,78.22-.73,125.97-.02,8.12-.04,15.54-.05,21.81l33.73,53.35,11.69,18.5,11.7-18.5,33.74-53.34h0Zm-105.27-214.5l-.2-.74m217.19,27.5l-33.18,37.58,19.14-6.62,67.55,134.34-101.11-36.98-39.3,39.86-.04-20.68c0-5.29-.03-10.87-.05-16.59-.08-21.62-.18-41.55-.29-56.14-.05-6.07-.1-11.45-.15-15.8-.11-8.2-.18-10.23-.22-10.7-.5-5.95-.99-12.27-1.49-19.31-.44-6.23-.66-13.17-.66-20.62s2.35-14.46,6.98-20.63c4.25-5.68,11.41-8.97,21.31-9.81v-10.19c-6.02-.51-10.88-1.96-14.76-4.36-3.76-2.34-6.72-5.17-8.81-8.41-.67-1.02-1.25-2.11-1.79-3.32-1.95-4.39-2.93-9.1-2.93-14.01,0-7.45.22-14.44.66-20.77.15-2.16.31-4.34.47-6.53v-.11c.36-4.78.69-8.98,1.02-12.86.12-1.78.37-16.95.61-98.02v-.49c.03-9.83.06-19.61.08-28.89l5.66-24.55,41.81,93.6-9.43,34.33,43.55-62.48,117.39,223.29,22.67,60.12-52.49-34.72-82.2-59.53Zm-1.27-11.42l88.31,63.96,30.42,20.12-13.21-35.04-110.64-210.45-63.83,91.58,21.74-79.14-29.98-69.65c-.02,9.43-.05,19.38-.08,29.38-.14,46.98-.35,95.28-.64,98.72-.36,4.24-.69,8.52-1,12.76h0c-.17,2.22-.33,4.42-.48,6.61-.43,6.21-.64,13-.64,20.18,0,3.7.73,7.25,2.19,10.55.33.74.71,1.46,1.16,2.14,1.42,2.22,3.46,4.14,6.16,5.82,3.53,2.19,8.77,3.3,15.59,3.3h3.19v26.77h-3.19c-9.86,0-16.53,2.23-19.82,6.63-3.56,4.74-5.28,9.82-5.28,15.52,0,7.17.21,13.91.64,20.01.45,6.31.94,12.77,1.48,19.21.09,1.07.17,5.16.25,11.31.05,4.36.1,9.75.15,15.84.12,16.03.22,36.86.29,56.17.02,5.72.04,11.31.05,16.6l28.62-29.03,86.08,31.49-54.56-108.51-42.65,14.75,59.68-67.6Z"/></g></g></svg>