<svg xmlns="http://www.w3.org/2000/svg" viewBox="0 0 358.107 444.193">
  <defs>
    <style>
      .cls-1 {
        fill: #242b2e;
      }

      .cls-2 {
        fill: #4f5b5d;
      }

      .cls-3 {
        fill:  #242b2e;
      }

      .cls-4 {
        fill: #158e7f;
      }

      .cls-5 {
        fill: #3ab5a4;
      }

      .cls-6, .cls-7 {
        fill: none;
        stroke-miterlimit: 10;
      }

      .cls-6 {
        stroke: #242b2e;
        stroke-width: 8.403px;
      }

      .cls-7 {
        stroke: #010101;
      }
    </style>
  </defs>
  <g id="Layer_2" data-name="Layer 2">
    <g id="Layer_1-2" data-name="Layer 1">
      <g>
        <circle class="cls-1" cx="179.018" cy="178.941" r="161.699"/>
        <g>
          <path class="cls-2" d="M188.439,327.043a5.965,5.965,0,0,0-1.741-4.466,5.674,5.674,0,0,0-4.024-1.552,5.594,5.594,0,0,0-3.954,1.549,5.716,5.716,0,0,0-1.8,4.459v9.253a5.714,5.714,0,0,0,1.737,4.378q4.142.014,8.247-.181a6.049,6.049,0,0,0,1.531-4.207Zm-2.9,9.07q-.085,3.18-2.867,3.209-2.8-.029-2.852-3.209V327.22q.055-3.15,2.852-3.209,2.782.057,2.867,3.209Z"/>
          <path class="cls-2" d="M172.852,274.514v-9.233a5.961,5.961,0,0,0-1.741-4.466,5.674,5.674,0,0,0-4.024-1.552,5.594,5.594,0,0,0-3.954,1.549,5.719,5.719,0,0,0-1.8,4.459v9.253a5.764,5.764,0,0,0,5.75,6.022,5.776,5.776,0,0,0,4.024-1.58A5.944,5.944,0,0,0,172.852,274.514Zm-2.9-.163q-.084,3.18-2.867,3.209-2.8-.027-2.852-3.209v-8.892q.057-3.151,2.852-3.209,2.783.057,2.867,3.209Z"/>
          <path class="cls-2" d="M204.025,274.514v-9.233a5.96,5.96,0,0,0-1.74-4.466,5.674,5.674,0,0,0-4.024-1.552,5.594,5.594,0,0,0-3.954,1.549,5.716,5.716,0,0,0-1.8,4.459v9.253a5.764,5.764,0,0,0,5.75,6.022,5.776,5.776,0,0,0,4.024-1.58A5.943,5.943,0,0,0,204.025,274.514Zm-2.9-.163q-.085,3.18-2.867,3.209-2.8-.027-2.852-3.209v-8.892q.055-3.151,2.852-3.209,2.783.057,2.867,3.209Z"/>
          <polygon class="cls-2" points="168.687 125.97 168.687 105.033 165.789 105.033 162.904 107.188 162.904 110.381 165.789 108.199 165.789 125.97 168.687 125.97"/>
          <path class="cls-2" d="M209.894,31.922a5.694,5.694,0,0,0,3.954,1.578,5.78,5.78,0,0,0,4.024-1.579,5.946,5.946,0,0,0,1.74-4.453V22.417c-.961-.248-1.928-.484-2.9-.715v5.6q-.084,3.18-2.866,3.209-2.8-.027-2.852-3.209V20.444c-.963-.194-1.927-.384-2.9-.561v7.6A5.692,5.692,0,0,0,209.894,31.922Z"/>
          <polygon class="cls-2" points="199.861 311.255 199.861 290.317 196.963 290.317 194.078 292.472 194.078 295.666 196.963 293.483 196.963 311.255 199.861 311.255"/>
          <polygon class="cls-2" points="168.687 197.675 165.789 197.675 162.904 199.831 162.904 203.024 165.789 200.841 165.789 218.613 168.687 218.613 168.687 197.675"/>
          <path class="cls-2" d="M161.337,181.882a5.763,5.763,0,0,0,5.75,6.022,5.78,5.78,0,0,0,4.024-1.579,5.945,5.945,0,0,0,1.741-4.452v-9.234a5.963,5.963,0,0,0-1.741-4.466,5.673,5.673,0,0,0-4.024-1.551,5.59,5.59,0,0,0-3.954,1.549,5.719,5.719,0,0,0-1.8,4.459Zm2.9-9.065q.057-3.151,2.852-3.209,2.783.057,2.867,3.209v8.893q-.084,3.18-2.867,3.209-2.8-.029-2.852-3.209Z"/>
          <polygon class="cls-2" points="168.687 249.493 168.687 228.555 165.789 228.555 162.904 230.711 162.904 233.904 165.789 231.721 165.789 249.493 168.687 249.493"/>
          <path class="cls-2" d="M161.337,151a5.763,5.763,0,0,0,5.75,6.021,5.776,5.776,0,0,0,4.024-1.579,5.944,5.944,0,0,0,1.741-4.452v-9.234a5.96,5.96,0,0,0-1.741-4.465,5.669,5.669,0,0,0-4.024-1.552,5.59,5.59,0,0,0-3.954,1.549,5.719,5.719,0,0,0-1.8,4.459Zm2.9-9.066q.057-3.15,2.852-3.209,2.783.057,2.867,3.209v8.893q-.084,3.18-2.867,3.209-2.8-.029-2.852-3.209Z"/>
          <path class="cls-2" d="M231.035,33.328V25.822q-1.443-.489-2.9-.953v8.459Z"/>
          <path class="cls-2" d="M172.852,58.349V49.116a5.961,5.961,0,0,0-1.741-4.466,5.674,5.674,0,0,0-4.024-1.552,5.594,5.594,0,0,0-3.954,1.549,5.719,5.719,0,0,0-1.8,4.459v9.253a5.763,5.763,0,0,0,5.75,6.021,5.771,5.771,0,0,0,4.024-1.579A5.944,5.944,0,0,0,172.852,58.349Zm-2.9-.163q-.084,3.18-2.867,3.209-2.8-.027-2.852-3.209V49.294q.057-3.151,2.852-3.209,2.783.057,2.867,3.209Z"/>
          <polygon class="cls-2" points="168.687 74.152 165.789 74.152 162.904 76.307 162.904 79.501 165.789 77.318 165.789 95.089 168.687 95.089 168.687 74.152"/>
          <polygon class="cls-2" points="168.687 311.255 168.687 290.317 165.789 290.317 162.904 292.472 162.904 295.666 165.789 293.483 165.789 311.255 168.687 311.255"/>
          <path class="cls-2" d="M223.685,212.763a5.763,5.763,0,0,0,5.75,6.022,5.78,5.78,0,0,0,4.024-1.579,5.945,5.945,0,0,0,1.74-4.452V203.52a5.962,5.962,0,0,0-1.74-4.466,5.673,5.673,0,0,0-4.024-1.551,5.592,5.592,0,0,0-3.954,1.548,5.714,5.714,0,0,0-1.8,4.459Zm2.9-9.065q.056-3.151,2.852-3.209,2.782.057,2.866,3.209v8.892q-.084,3.182-2.866,3.209-2.8-.027-2.852-3.209Z"/>
          <polygon class="cls-2" points="231.035 259.436 228.137 259.436 225.252 261.591 225.252 264.785 228.137 262.602 228.137 280.374 231.035 280.374 231.035 259.436"/>
          <polygon class="cls-2" points="231.035 311.255 231.035 290.317 228.137 290.317 225.252 292.472 225.252 295.666 228.137 293.483 228.137 311.255 231.035 311.255"/>
          <path class="cls-2" d="M223.685,243.643a5.763,5.763,0,0,0,5.75,6.022,5.78,5.78,0,0,0,4.024-1.579,5.946,5.946,0,0,0,1.74-4.453V234.4a5.96,5.96,0,0,0-1.74-4.466,5.674,5.674,0,0,0-4.024-1.552,5.593,5.593,0,0,0-3.954,1.549,5.714,5.714,0,0,0-1.8,4.459Zm2.9-9.065q.056-3.151,2.852-3.209,2.782.057,2.866,3.209v8.892q-.084,3.18-2.866,3.209-2.8-.027-2.852-3.209Z"/>
          <polygon class="cls-2" points="231.035 135.914 228.137 135.914 225.252 138.069 225.252 141.262 228.137 139.08 228.137 156.851 231.035 156.851 231.035 135.914"/>
          <path class="cls-2" d="M246.622,33.328V32.01c-.959-.441-1.928-.865-2.9-1.288v2.606Z"/>
          <polygon class="cls-2" points="231.035 187.732 231.035 166.795 228.137 166.795 225.252 168.95 225.252 172.143 228.137 169.961 228.137 187.732 231.035 187.732"/>
          <polygon class="cls-2" points="147.317 110.381 150.203 108.199 150.203 125.97 153.101 125.97 153.101 105.033 150.203 105.033 147.317 107.188 147.317 110.381"/>
          <polygon class="cls-2" points="246.622 95.089 246.622 74.152 243.724 74.152 240.838 76.307 240.838 79.501 243.724 77.318 243.724 95.089 246.622 95.089"/>
          <path class="cls-2" d="M250.786,49.116a5.96,5.96,0,0,0-1.74-4.466,5.675,5.675,0,0,0-4.024-1.552,5.591,5.591,0,0,0-3.954,1.549,5.712,5.712,0,0,0-1.8,4.459v9.253a5.763,5.763,0,0,0,5.75,6.021,5.773,5.773,0,0,0,4.024-1.579,5.943,5.943,0,0,0,1.74-4.452Zm-2.9,9.07q-.084,3.18-2.866,3.209-2.8-.027-2.852-3.209V49.294q.056-3.151,2.852-3.209,2.783.057,2.866,3.209Z"/>
          <polygon class="cls-2" points="246.622 187.732 246.622 166.795 243.724 166.795 240.838 168.95 240.838 172.143 243.724 169.961 243.724 187.732 246.622 187.732"/>
          <path class="cls-2" d="M250.786,203.52a5.962,5.962,0,0,0-1.74-4.466,5.674,5.674,0,0,0-4.024-1.551,5.59,5.59,0,0,0-3.954,1.548,5.714,5.714,0,0,0-1.8,4.459v9.253a5.763,5.763,0,0,0,5.75,6.022,5.782,5.782,0,0,0,4.024-1.579,5.945,5.945,0,0,0,1.74-4.452Zm-2.9,9.07q-.084,3.182-2.866,3.209-2.8-.027-2.852-3.209V203.7q.056-3.151,2.852-3.209,2.783.057,2.866,3.209Z"/>
          <path class="cls-2" d="M250.786,141.758a5.96,5.96,0,0,0-1.74-4.465,5.671,5.671,0,0,0-4.024-1.552,5.587,5.587,0,0,0-3.954,1.549,5.712,5.712,0,0,0-1.8,4.459V151a5.763,5.763,0,0,0,5.75,6.021,5.777,5.777,0,0,0,4.024-1.579,5.943,5.943,0,0,0,1.74-4.452Zm-2.9,9.071q-.084,3.18-2.866,3.209-2.8-.029-2.852-3.209v-8.893q.056-3.15,2.852-3.209,2.783.057,2.866,3.209Z"/>
          <path class="cls-2" d="M204.025,80a5.96,5.96,0,0,0-1.74-4.466,5.674,5.674,0,0,0-4.024-1.552,5.594,5.594,0,0,0-3.954,1.549,5.716,5.716,0,0,0-1.8,4.459V89.24a5.763,5.763,0,0,0,5.75,6.021,5.776,5.776,0,0,0,4.024-1.579,5.943,5.943,0,0,0,1.74-4.452Zm-2.9,9.07q-.085,3.18-2.867,3.209-2.8-.028-2.852-3.209V80.174q.055-3.15,2.852-3.209,2.783.059,2.867,3.209Z"/>
          <path class="cls-2" d="M179.183,17.215c-.231,0-.461.006-.692.007v.517Z"/>
          <polygon class="cls-2" points="153.101 311.255 153.101 290.317 150.203 290.317 147.317 292.472 147.317 295.666 150.203 293.483 150.203 311.255 153.101 311.255"/>
          <path class="cls-2" d="M181.376,33.328h2.9V17.316q-1.451-.048-2.9-.069Z"/>
          <path class="cls-2" d="M147.547,31.922A5.692,5.692,0,0,0,151.5,33.5a5.782,5.782,0,0,0,4.024-1.579,5.946,5.946,0,0,0,1.74-4.453V18.68c-.968.132-1.934.267-2.9.416v8.209q-.084,3.18-2.866,3.209-2.8-.027-2.852-3.209V20.086q-1.453.278-2.9.584v6.808A5.692,5.692,0,0,0,147.547,31.922Z"/>
          <path class="cls-2" d="M199.861,33.328V18.592c-.967-.127-1.933-.236-2.9-.345V33.328Z"/>
          <polygon class="cls-2" points="199.861 64.209 199.861 43.271 196.963 43.271 194.078 45.426 194.078 48.62 196.963 46.437 196.963 64.209 199.861 64.209"/>
          <polygon class="cls-2" points="184.274 64.209 184.274 43.271 181.376 43.271 178.491 45.426 178.491 48.62 181.376 46.437 181.376 64.209 184.274 64.209"/>
          <path class="cls-2" d="M157.265,141.758a5.96,5.96,0,0,0-1.74-4.465,5.671,5.671,0,0,0-4.024-1.552,5.587,5.587,0,0,0-3.954,1.549,5.712,5.712,0,0,0-1.8,4.459V151a5.763,5.763,0,0,0,5.75,6.021,5.777,5.777,0,0,0,4.024-1.579,5.943,5.943,0,0,0,1.74-4.452Zm-2.9,9.071q-.084,3.18-2.866,3.209-2.8-.029-2.852-3.209v-8.893q.055-3.15,2.852-3.209,2.782.057,2.866,3.209Z"/>
          <path class="cls-2" d="M157.265,172.639a5.962,5.962,0,0,0-1.74-4.466,5.674,5.674,0,0,0-4.024-1.551,5.587,5.587,0,0,0-3.954,1.549,5.712,5.712,0,0,0-1.8,4.459v9.252a5.763,5.763,0,0,0,5.75,6.022,5.782,5.782,0,0,0,4.024-1.579,5.945,5.945,0,0,0,1.74-4.452Zm-2.9,9.071q-.084,3.18-2.866,3.209-2.8-.029-2.852-3.209v-8.893q.055-3.151,2.852-3.209,2.782.057,2.866,3.209Z"/>
          <polygon class="cls-2" points="153.101 95.089 153.101 74.152 150.203 74.152 147.317 76.307 147.317 79.501 150.203 77.318 150.203 95.089 153.101 95.089"/>
          <path class="cls-2" d="M157.265,243.633V234.4a5.96,5.96,0,0,0-1.74-4.466,5.675,5.675,0,0,0-4.024-1.552,5.591,5.591,0,0,0-3.954,1.549,5.714,5.714,0,0,0-1.8,4.459v9.253a5.763,5.763,0,0,0,5.75,6.022,5.782,5.782,0,0,0,4.024-1.579A5.946,5.946,0,0,0,157.265,243.633Zm-2.9-.163q-.084,3.18-2.866,3.209-2.8-.027-2.852-3.209v-8.892q.055-3.151,2.852-3.209,2.782.057,2.866,3.209Z"/>
          <polygon class="cls-2" points="153.101 259.436 150.203 259.436 147.317 261.591 147.317 264.785 150.203 262.602 150.203 280.374 153.101 280.374 153.101 259.436"/>
          <path class="cls-2" d="M223.685,120.121a5.763,5.763,0,0,0,5.75,6.021,5.776,5.776,0,0,0,4.024-1.579,5.943,5.943,0,0,0,1.74-4.452v-9.233a5.96,5.96,0,0,0-1.74-4.466,5.674,5.674,0,0,0-4.024-1.552,5.593,5.593,0,0,0-3.954,1.549,5.712,5.712,0,0,0-1.8,4.459Zm2.9-9.066q.056-3.15,2.852-3.209,2.782.057,2.866,3.209v8.893q-.084,3.18-2.866,3.209-2.8-.028-2.852-3.209Z"/>
          <path class="cls-2" d="M157.265,203.52a5.962,5.962,0,0,0-1.74-4.466A5.674,5.674,0,0,0,151.5,197.5a5.59,5.59,0,0,0-3.954,1.548,5.714,5.714,0,0,0-1.8,4.459v9.253a5.763,5.763,0,0,0,5.75,6.022,5.782,5.782,0,0,0,4.024-1.579,5.945,5.945,0,0,0,1.74-4.452Zm-2.9,9.07q-.084,3.182-2.866,3.209-2.8-.027-2.852-3.209V203.7q.055-3.151,2.852-3.209,2.782.057,2.866,3.209Z"/>
          <path class="cls-2" d="M176.924,151a5.763,5.763,0,0,0,5.75,6.021,5.776,5.776,0,0,0,4.024-1.579,5.948,5.948,0,0,0,1.741-4.452v-9.234a5.964,5.964,0,0,0-1.741-4.465,5.669,5.669,0,0,0-4.024-1.552,5.59,5.59,0,0,0-3.954,1.549,5.716,5.716,0,0,0-1.8,4.459Zm2.9-9.066q.055-3.15,2.852-3.209,2.782.057,2.867,3.209v8.893q-.085,3.18-2.867,3.209-2.8-.029-2.852-3.209Z"/>
          <polygon class="cls-2" points="184.274 187.732 184.274 166.795 181.376 166.795 178.491 168.95 178.491 172.143 181.376 169.961 181.376 187.732 184.274 187.732"/>
          <polygon class="cls-2" points="184.274 280.374 184.274 259.436 181.376 259.436 178.491 261.591 178.491 264.785 181.376 262.602 181.376 280.374 184.274 280.374"/>
          <path class="cls-2" d="M176.924,212.763a5.763,5.763,0,0,0,5.75,6.022,5.78,5.78,0,0,0,4.024-1.579,5.949,5.949,0,0,0,1.741-4.452V203.52a5.966,5.966,0,0,0-1.741-4.466,5.673,5.673,0,0,0-4.024-1.551,5.593,5.593,0,0,0-3.954,1.548,5.717,5.717,0,0,0-1.8,4.459Zm2.9-9.065q.055-3.151,2.852-3.209,2.782.057,2.867,3.209v8.892q-.085,3.182-2.867,3.209-2.8-.027-2.852-3.209Z"/>
          <path class="cls-2" d="M176.924,89.24a5.763,5.763,0,0,0,5.75,6.021,5.776,5.776,0,0,0,4.024-1.579,5.948,5.948,0,0,0,1.741-4.452V80a5.965,5.965,0,0,0-1.741-4.466,5.674,5.674,0,0,0-4.024-1.552,5.594,5.594,0,0,0-3.954,1.549,5.716,5.716,0,0,0-1.8,4.459Zm2.9-9.066q.055-3.15,2.852-3.209,2.782.059,2.867,3.209v8.893q-.085,3.18-2.867,3.209-2.8-.028-2.852-3.209Z"/>
          <polygon class="cls-2" points="184.274 125.97 184.274 105.033 181.376 105.033 178.491 107.188 178.491 110.381 181.376 108.199 181.376 125.97 184.274 125.97"/>
          <polygon class="cls-2" points="184.274 228.555 181.376 228.555 178.491 230.711 178.491 233.904 181.376 231.721 181.376 249.493 184.274 249.493 184.274 228.555"/>
          <path class="cls-2" d="M204.025,110.878a5.96,5.96,0,0,0-1.74-4.466,5.674,5.674,0,0,0-4.024-1.552,5.594,5.594,0,0,0-3.954,1.549,5.716,5.716,0,0,0-1.8,4.459v9.253a5.763,5.763,0,0,0,5.75,6.021,5.776,5.776,0,0,0,4.024-1.579,5.943,5.943,0,0,0,1.74-4.452Zm-2.9,9.07q-.085,3.18-2.867,3.209-2.8-.028-2.852-3.209v-8.893q.055-3.15,2.852-3.209,2.783.057,2.867,3.209Z"/>
          <polygon class="cls-2" points="194.078 203.024 196.963 200.841 196.963 218.613 199.861 218.613 199.861 197.675 196.963 197.675 194.078 199.831 194.078 203.024"/>
          <polygon class="cls-2" points="194.078 233.904 196.963 231.721 196.963 249.493 199.861 249.493 199.861 228.555 196.963 228.555 194.078 230.711 194.078 233.904"/>
          <polygon class="cls-2" points="194.078 172.143 196.963 169.961 196.963 187.732 199.861 187.732 199.861 166.795 196.963 166.795 194.078 168.95 194.078 172.143"/>
          <path class="cls-2" d="M176.924,305.4a5.763,5.763,0,0,0,5.75,6.021,5.776,5.776,0,0,0,4.024-1.579,5.948,5.948,0,0,0,1.741-4.452v-9.233A5.965,5.965,0,0,0,186.7,291.7a5.674,5.674,0,0,0-4.024-1.552,5.594,5.594,0,0,0-3.954,1.549,5.716,5.716,0,0,0-1.8,4.459Zm2.9-9.066q.055-3.15,2.852-3.209,2.782.058,2.867,3.209v8.893q-.085,3.18-2.867,3.209-2.8-.028-2.852-3.209Z"/>
          <polygon class="cls-2" points="199.861 156.851 199.861 135.914 196.963 135.914 194.078 138.069 194.078 141.262 196.963 139.08 196.963 156.851 199.861 156.851"/>
          <polygon class="cls-2" points="240.838 110.381 243.724 108.199 243.724 125.97 246.622 125.97 246.622 105.033 243.724 105.033 240.838 107.188 240.838 110.381"/>
          <path class="cls-2" d="M286.032,243.643a5.763,5.763,0,0,0,5.75,6.022,5.78,5.78,0,0,0,4.024-1.579,5.946,5.946,0,0,0,1.74-4.453V234.4a5.96,5.96,0,0,0-1.74-4.466,5.674,5.674,0,0,0-4.024-1.552,5.594,5.594,0,0,0-3.954,1.549,5.714,5.714,0,0,0-1.8,4.459Zm2.9-9.065q.055-3.151,2.852-3.209,2.783.057,2.867,3.209v8.892q-.086,3.18-2.867,3.209-2.8-.027-2.852-3.209Z"/>
          <polygon class="cls-2" points="293.382 218.613 293.382 197.675 290.484 197.675 287.599 199.831 287.599 203.024 290.484 200.841 290.484 218.613 293.382 218.613"/>
          <path class="cls-2" d="M291.782,95.261a5.776,5.776,0,0,0,4.024-1.579,5.943,5.943,0,0,0,1.74-4.452V80a5.96,5.96,0,0,0-1.74-4.466,5.674,5.674,0,0,0-4.024-1.552,5.594,5.594,0,0,0-3.954,1.549,5.712,5.712,0,0,0-1.8,4.459V89.24a5.763,5.763,0,0,0,5.75,6.021ZM288.93,80.174q.055-3.15,2.852-3.209,2.783.059,2.867,3.209v8.893q-.086,3.18-2.867,3.209-2.8-.028-2.852-3.209Z"/>
          <path class="cls-2" d="M313.133,110.878a5.96,5.96,0,0,0-1.74-4.466,5.674,5.674,0,0,0-4.024-1.552,5.593,5.593,0,0,0-3.954,1.549,5.712,5.712,0,0,0-1.8,4.459v9.253a5.763,5.763,0,0,0,5.75,6.021,5.776,5.776,0,0,0,4.024-1.579,5.943,5.943,0,0,0,1.74-4.452Zm-2.9,9.07q-.084,3.18-2.866,3.209-2.8-.028-2.852-3.209v-8.893q.055-3.15,2.852-3.209,2.782.057,2.866,3.209Z"/>
          <path class="cls-2" d="M286.032,181.882a5.763,5.763,0,0,0,5.75,6.022,5.78,5.78,0,0,0,4.024-1.579,5.945,5.945,0,0,0,1.74-4.452v-9.234a5.962,5.962,0,0,0-1.74-4.466,5.673,5.673,0,0,0-4.024-1.551,5.59,5.59,0,0,0-3.954,1.549,5.712,5.712,0,0,0-1.8,4.459Zm2.9-9.065q.055-3.151,2.852-3.209,2.783.057,2.867,3.209v8.893q-.086,3.18-2.867,3.209-2.8-.029-2.852-3.209Z"/>
          <path class="cls-2" d="M286.032,151a5.763,5.763,0,0,0,5.75,6.021,5.776,5.776,0,0,0,4.024-1.579,5.943,5.943,0,0,0,1.74-4.452v-9.234a5.96,5.96,0,0,0-1.74-4.465,5.669,5.669,0,0,0-4.024-1.552,5.59,5.59,0,0,0-3.954,1.549,5.712,5.712,0,0,0-1.8,4.459Zm2.9-9.066q.055-3.15,2.852-3.209,2.783.057,2.867,3.209v8.893q-.086,3.18-2.867,3.209-2.8-.029-2.852-3.209Z"/>
          <path class="cls-2" d="M286.032,274.524a5.764,5.764,0,0,0,5.75,6.022,5.776,5.776,0,0,0,4.024-1.58,5.943,5.943,0,0,0,1.74-4.452v-9.233a5.96,5.96,0,0,0-1.74-4.466,5.674,5.674,0,0,0-4.024-1.552,5.594,5.594,0,0,0-3.954,1.549,5.712,5.712,0,0,0-1.8,4.459Zm2.9-9.065q.055-3.151,2.852-3.209,2.783.057,2.867,3.209v8.892q-.086,3.18-2.867,3.209-2.8-.027-2.852-3.209Z"/>
          <path class="cls-2" d="M292.966,64.209q-1.229-1.221-2.482-2.417v2.417Z"/>
          <path class="cls-2" d="M281.96,141.758a5.964,5.964,0,0,0-1.741-4.465,5.669,5.669,0,0,0-4.024-1.552,5.59,5.59,0,0,0-3.954,1.549,5.716,5.716,0,0,0-1.8,4.459V151a5.763,5.763,0,0,0,5.75,6.021,5.776,5.776,0,0,0,4.024-1.579,5.948,5.948,0,0,0,1.741-4.452Zm-2.9,9.071q-.086,3.18-2.867,3.209-2.8-.029-2.852-3.209v-8.893q.055-3.15,2.852-3.209,2.783.057,2.867,3.209Z"/>
          <path class="cls-2" d="M281.96,212.754V203.52a5.966,5.966,0,0,0-1.741-4.466A5.673,5.673,0,0,0,276.2,197.5a5.593,5.593,0,0,0-3.954,1.548,5.717,5.717,0,0,0-1.8,4.459v9.253a5.763,5.763,0,0,0,5.75,6.022,5.78,5.78,0,0,0,4.024-1.579A5.949,5.949,0,0,0,281.96,212.754Zm-2.9-.164q-.086,3.182-2.867,3.209-2.8-.027-2.852-3.209V203.7q.055-3.151,2.852-3.209,2.783.057,2.867,3.209Z"/>
          <path class="cls-2" d="M281.96,110.878a5.965,5.965,0,0,0-1.741-4.466,5.674,5.674,0,0,0-4.024-1.552,5.594,5.594,0,0,0-3.954,1.549,5.716,5.716,0,0,0-1.8,4.459v9.253a5.763,5.763,0,0,0,5.75,6.021,5.776,5.776,0,0,0,4.024-1.579,5.948,5.948,0,0,0,1.741-4.452Zm-2.9,9.07q-.086,3.18-2.867,3.209-2.8-.028-2.852-3.209v-8.893q.055-3.15,2.852-3.209,2.783.057,2.867,3.209Z"/>
          <polygon class="cls-2" points="277.795 280.374 277.795 259.436 274.897 259.436 272.012 261.591 272.012 264.785 274.897 262.602 274.897 280.374 277.795 280.374"/>
          <polygon class="cls-2" points="277.795 228.555 274.897 228.555 272.012 230.711 272.012 233.904 274.897 231.721 274.897 249.493 277.795 249.493 277.795 228.555"/>
          <path class="cls-2" d="M281.96,172.639a5.966,5.966,0,0,0-1.741-4.466,5.673,5.673,0,0,0-4.024-1.551,5.59,5.59,0,0,0-3.954,1.549,5.716,5.716,0,0,0-1.8,4.459v9.252a5.763,5.763,0,0,0,5.75,6.022,5.78,5.78,0,0,0,4.024-1.579,5.949,5.949,0,0,0,1.741-4.452Zm-2.9,9.071q-.086,3.18-2.867,3.209-2.8-.029-2.852-3.209v-8.893q.055-3.151,2.852-3.209,2.783.057,2.867,3.209Z"/>
          <polygon class="cls-2" points="340.143 187.732 340.143 166.795 337.245 166.795 334.359 168.95 334.359 172.143 337.245 169.961 337.245 187.732 340.143 187.732"/>
          <path class="cls-2" d="M332.793,141.749V151a5.763,5.763,0,0,0,5.75,6.021,6.69,6.69,0,0,0,.7-.067c-.135-.983-.276-1.964-.429-2.942-.092.007-.177.023-.275.024q-2.8-.029-2.852-3.209v-8.893a4.343,4.343,0,0,1,.35-1.743q-.417-1.685-.872-3.356a5.856,5.856,0,0,0-.58.453A5.712,5.712,0,0,0,332.793,141.749Z"/>
          <path class="cls-2" d="M286.032,120.121a5.763,5.763,0,0,0,5.75,6.021,5.776,5.776,0,0,0,4.024-1.579,5.943,5.943,0,0,0,1.74-4.452v-9.233a5.96,5.96,0,0,0-1.74-4.466,5.674,5.674,0,0,0-4.024-1.552,5.594,5.594,0,0,0-3.954,1.549,5.712,5.712,0,0,0-1.8,4.459Zm2.9-9.066q.055-3.15,2.852-3.209,2.783.057,2.867,3.209v8.893q-.086,3.18-2.867,3.209-2.8-.028-2.852-3.209Z"/>
          <polygon class="cls-2" points="324.556 156.851 324.556 135.914 321.658 135.914 318.773 138.069 318.773 141.262 321.658 139.08 321.658 156.851 324.556 156.851"/>
          <path class="cls-2" d="M161.337,27.478a5.764,5.764,0,0,0,5.75,6.022,5.78,5.78,0,0,0,4.024-1.579,5.946,5.946,0,0,0,1.741-4.453V18.235a8.635,8.635,0,0,0-.085-.894q-1.464.055-2.922.135a5.491,5.491,0,0,1,.109.937v8.892q-.084,3.18-2.867,3.209-2.8-.027-2.852-3.209V18.413c0-.188.023-.357.041-.528q-1.47.133-2.935.3c0,.016,0,.029,0,.044Z"/>
          <path class="cls-2" d="M83.4,58.359a5.763,5.763,0,0,0,5.75,6.021A5.771,5.771,0,0,0,93.177,62.8a5.948,5.948,0,0,0,1.741-4.452V49.116a5.965,5.965,0,0,0-1.741-4.466,5.567,5.567,0,0,0-2.268-1.284q-3.8,2.468-7.452,5.137c-.016.2-.052.39-.054.6Zm2.9-9.065q.055-3.151,2.852-3.209,2.782.057,2.867,3.209v8.892q-.086,3.18-2.867,3.209-2.8-.027-2.852-3.209Z"/>
          <path class="cls-2" d="M328.72,172.639a5.962,5.962,0,0,0-1.74-4.466,5.673,5.673,0,0,0-4.024-1.551A5.588,5.588,0,0,0,319,168.171a5.712,5.712,0,0,0-1.8,4.459v9.252a5.763,5.763,0,0,0,5.75,6.022,5.78,5.78,0,0,0,4.024-1.579,5.945,5.945,0,0,0,1.74-4.452Zm-2.9,9.071q-.084,3.18-2.866,3.209-2.8-.029-2.852-3.209v-8.893q.056-3.151,2.852-3.209,2.782.057,2.866,3.209Z"/>
          <polygon class="cls-2" points="308.969 166.795 306.071 166.795 303.186 168.95 303.186 172.143 306.071 169.961 306.071 187.732 308.969 187.732 308.969 166.795"/>
          <polygon class="cls-2" points="308.969 197.675 306.071 197.675 303.186 199.831 303.186 203.024 306.071 200.841 306.071 218.613 308.969 218.613 308.969 197.675"/>
          <path class="cls-2" d="M313.133,150.992v-9.234a5.96,5.96,0,0,0-1.74-4.465,5.669,5.669,0,0,0-4.024-1.552,5.588,5.588,0,0,0-3.954,1.549,5.712,5.712,0,0,0-1.8,4.459V151a5.763,5.763,0,0,0,5.75,6.021,5.776,5.776,0,0,0,4.024-1.579A5.943,5.943,0,0,0,313.133,150.992Zm-2.9-.163q-.084,3.18-2.866,3.209-2.8-.029-2.852-3.209v-8.893q.055-3.15,2.852-3.209,2.782.057,2.866,3.209Z"/>
          <path class="cls-2" d="M318.773,107.188v3.193l2.885-2.182V125.97h2.9V108.478q-.841-1.734-1.722-3.445h-1.176Z"/>
          <path class="cls-2" d="M301.619,89.24a5.763,5.763,0,0,0,5.75,6.021,5.776,5.776,0,0,0,4.024-1.579,5.943,5.943,0,0,0,1.74-4.452v-.6q-1.416-2.1-2.9-4.165v4.6q-.084,3.18-2.866,3.209-2.8-.028-2.852-3.209V80.174a3.627,3.627,0,0,1,.7-2.321c-.61-.762-1.232-1.516-1.856-2.267a5.731,5.731,0,0,0-1.744,4.4Z"/>
          <polygon class="cls-2" points="308.969 249.493 308.969 228.555 306.071 228.555 303.186 230.711 303.186 233.904 306.071 231.721 306.071 249.493 308.969 249.493"/>
          <path class="cls-2" d="M260.608,290.144a5.594,5.594,0,0,0-3.954,1.549,5.719,5.719,0,0,0-1.8,4.459V305.4a5.763,5.763,0,0,0,5.75,6.021,5.776,5.776,0,0,0,4.024-1.579,5.944,5.944,0,0,0,1.741-4.452v-9.233a5.961,5.961,0,0,0-1.741-4.466A5.674,5.674,0,0,0,260.608,290.144Zm2.867,15.088q-.084,3.18-2.867,3.209-2.8-.028-2.852-3.209v-8.893q.057-3.15,2.852-3.209,2.783.058,2.867,3.209Z"/>
          <polygon class="cls-2" points="246.622 259.436 243.724 259.436 240.838 261.591 240.838 264.785 243.724 262.602 243.724 280.374 246.622 280.374 246.622 259.436"/>
          <path class="cls-2" d="M213.848,64.38a5.771,5.771,0,0,0,4.024-1.579,5.943,5.943,0,0,0,1.74-4.452V49.116a5.96,5.96,0,0,0-1.74-4.466,5.674,5.674,0,0,0-4.024-1.552,5.593,5.593,0,0,0-3.954,1.549,5.712,5.712,0,0,0-1.8,4.459v9.253a5.763,5.763,0,0,0,5.75,6.021ZM211,49.294q.055-3.151,2.852-3.209,2.782.057,2.866,3.209v8.892q-.084,3.18-2.866,3.209-2.8-.027-2.852-3.209Z"/>
          <path class="cls-2" d="M219.612,274.514v-9.233a5.96,5.96,0,0,0-1.74-4.466,5.674,5.674,0,0,0-4.024-1.552,5.593,5.593,0,0,0-3.954,1.549,5.712,5.712,0,0,0-1.8,4.459v9.253a5.764,5.764,0,0,0,5.75,6.022,5.776,5.776,0,0,0,4.024-1.58A5.943,5.943,0,0,0,219.612,274.514Zm-2.9-.163q-.084,3.18-2.866,3.209-2.8-.027-2.852-3.209v-8.892q.055-3.151,2.852-3.209,2.782.057,2.866,3.209Z"/>
          <path class="cls-2" d="M208.1,120.121a5.763,5.763,0,0,0,5.75,6.021,5.776,5.776,0,0,0,4.024-1.579,5.943,5.943,0,0,0,1.74-4.452v-9.233a5.96,5.96,0,0,0-1.74-4.466,5.674,5.674,0,0,0-4.024-1.552,5.593,5.593,0,0,0-3.954,1.549,5.712,5.712,0,0,0-1.8,4.459Zm2.9-9.066q.055-3.15,2.852-3.209,2.782.057,2.866,3.209v8.893q-.084,3.18-2.866,3.209-2.8-.028-2.852-3.209Z"/>
          <polygon class="cls-2" points="215.448 311.255 215.448 290.317 212.55 290.317 209.665 292.472 209.665 295.666 212.55 293.483 212.55 311.255 215.448 311.255"/>
          <path class="cls-2" d="M250.786,243.633V234.4a5.96,5.96,0,0,0-1.74-4.466,5.675,5.675,0,0,0-4.024-1.552,5.591,5.591,0,0,0-3.954,1.549,5.714,5.714,0,0,0-1.8,4.459v9.253a5.763,5.763,0,0,0,5.75,6.022,5.782,5.782,0,0,0,4.024-1.579A5.946,5.946,0,0,0,250.786,243.633Zm-2.9-.163q-.084,3.18-2.866,3.209-2.8-.027-2.852-3.209v-8.892q.056-3.151,2.852-3.209,2.783.057,2.866,3.209Z"/>
          <path class="cls-2" d="M208.1,89.24a5.763,5.763,0,0,0,5.75,6.021,5.776,5.776,0,0,0,4.024-1.579,5.943,5.943,0,0,0,1.74-4.452V80a5.96,5.96,0,0,0-1.74-4.466,5.674,5.674,0,0,0-4.024-1.552,5.593,5.593,0,0,0-3.954,1.549,5.712,5.712,0,0,0-1.8,4.459Zm2.9-9.066q.055-3.15,2.852-3.209,2.782.059,2.866,3.209v8.893q-.084,3.18-2.866,3.209-2.8-.028-2.852-3.209Z"/>
          <polygon class="cls-2" points="215.448 249.493 215.448 228.555 212.55 228.555 209.665 230.711 209.665 233.904 212.55 231.721 212.55 249.493 215.448 249.493"/>
          <path class="cls-2" d="M233.459,322.577a5.674,5.674,0,0,0-4.024-1.552,5.593,5.593,0,0,0-3.954,1.549,5.712,5.712,0,0,0-1.8,4.459v7.341c.969-.28,1.936-.564,2.9-.86V327.22q.056-3.15,2.852-3.209,2.782.057,2.866,3.209v4.409q1.457-.51,2.9-1.048v-3.538A5.96,5.96,0,0,0,233.459,322.577Z"/>
          <polygon class="cls-2" points="231.035 64.209 231.035 43.271 228.137 43.271 225.252 45.426 225.252 48.62 228.137 46.437 228.137 64.209 231.035 64.209"/>
          <path class="cls-2" d="M208.1,181.882a5.763,5.763,0,0,0,5.75,6.022,5.78,5.78,0,0,0,4.024-1.579,5.945,5.945,0,0,0,1.74-4.452v-9.234a5.962,5.962,0,0,0-1.74-4.466,5.673,5.673,0,0,0-4.024-1.551,5.588,5.588,0,0,0-3.954,1.549,5.712,5.712,0,0,0-1.8,4.459Zm2.9-9.065q.055-3.151,2.852-3.209,2.782.057,2.866,3.209v8.893q-.084,3.18-2.866,3.209-2.8-.029-2.852-3.209Z"/>
          <path class="cls-2" d="M208.1,212.763a5.763,5.763,0,0,0,5.75,6.022,5.78,5.78,0,0,0,4.024-1.579,5.945,5.945,0,0,0,1.74-4.452V203.52a5.962,5.962,0,0,0-1.74-4.466,5.673,5.673,0,0,0-4.024-1.551,5.592,5.592,0,0,0-3.954,1.548,5.714,5.714,0,0,0-1.8,4.459ZM211,203.7q.055-3.151,2.852-3.209,2.782.057,2.866,3.209v8.892q-.084,3.182-2.866,3.209-2.8-.027-2.852-3.209Z"/>
          <path class="cls-2" d="M208.1,151a5.763,5.763,0,0,0,5.75,6.021,5.776,5.776,0,0,0,4.024-1.579,5.943,5.943,0,0,0,1.74-4.452v-9.234a5.96,5.96,0,0,0-1.74-4.465,5.669,5.669,0,0,0-4.024-1.552,5.588,5.588,0,0,0-3.954,1.549,5.712,5.712,0,0,0-1.8,4.459Zm2.9-9.066q.055-3.15,2.852-3.209,2.782.057,2.866,3.209v8.893q-.084,3.18-2.866,3.209-2.8-.029-2.852-3.209Z"/>
          <polygon class="cls-2" points="225.252 79.501 228.137 77.318 228.137 95.089 231.035 95.089 231.035 74.152 228.137 74.152 225.252 76.307 225.252 79.501"/>
          <polygon class="cls-2" points="246.622 311.255 246.622 290.317 243.724 290.317 240.838 292.472 240.838 295.666 243.724 293.483 243.724 311.255 246.622 311.255"/>
          <path class="cls-2" d="M266.373,265.281a5.961,5.961,0,0,0-1.741-4.466,5.674,5.674,0,0,0-4.024-1.552,5.594,5.594,0,0,0-3.954,1.549,5.719,5.719,0,0,0-1.8,4.459v9.253a5.764,5.764,0,0,0,5.75,6.022,5.776,5.776,0,0,0,4.024-1.58,5.944,5.944,0,0,0,1.741-4.452Zm-2.9,9.07q-.084,3.18-2.867,3.209-2.8-.027-2.852-3.209v-8.892q.057-3.151,2.852-3.209,2.783.057,2.867,3.209Z"/>
          <polygon class="cls-2" points="262.208 218.613 262.208 197.675 259.31 197.675 256.425 199.831 256.425 203.024 259.31 200.841 259.31 218.613 262.208 218.613"/>
          <polygon class="cls-2" points="256.425 233.904 259.31 231.721 259.31 249.493 262.208 249.493 262.208 228.555 259.31 228.555 256.425 230.711 256.425 233.904"/>
          <path class="cls-2" d="M273.374,47.589c-.451-.325-.907-.643-1.362-.964V48.62Z"/>
          <path class="cls-2" d="M274.9,64.209h2.9V50.888q-1.435-1.108-2.9-2.185Z"/>
          <polygon class="cls-2" points="277.795 95.089 277.795 74.152 274.897 74.152 272.012 76.307 272.012 79.501 274.897 77.318 274.897 95.089 277.795 95.089"/>
          <path class="cls-2" d="M266.373,49.116a5.961,5.961,0,0,0-1.741-4.466,5.674,5.674,0,0,0-4.024-1.552,5.594,5.594,0,0,0-3.954,1.549,5.719,5.719,0,0,0-1.8,4.459v9.253a5.763,5.763,0,0,0,5.75,6.021,5.771,5.771,0,0,0,4.024-1.579,5.944,5.944,0,0,0,1.741-4.452Zm-2.9,9.07q-.084,3.18-2.867,3.209-2.8-.027-2.852-3.209V49.294q.057-3.151,2.852-3.209,2.783.057,2.867,3.209Z"/>
          <path class="cls-2" d="M266.373,172.639a5.963,5.963,0,0,0-1.741-4.466,5.673,5.673,0,0,0-4.024-1.551,5.59,5.59,0,0,0-3.954,1.549,5.719,5.719,0,0,0-1.8,4.459v9.252a5.763,5.763,0,0,0,5.75,6.022,5.78,5.78,0,0,0,4.024-1.579,5.945,5.945,0,0,0,1.741-4.452Zm-2.9,9.071q-.084,3.18-2.867,3.209-2.8-.029-2.852-3.209v-8.893q.057-3.151,2.852-3.209,2.783.057,2.867,3.209Z"/>
          <polygon class="cls-2" points="262.208 95.089 262.208 74.152 259.31 74.152 256.425 76.307 256.425 79.501 259.31 77.318 259.31 95.089 262.208 95.089"/>
          <path class="cls-2" d="M266.373,110.878a5.961,5.961,0,0,0-1.741-4.466,5.674,5.674,0,0,0-4.024-1.552,5.594,5.594,0,0,0-3.954,1.549,5.719,5.719,0,0,0-1.8,4.459v9.253a5.763,5.763,0,0,0,5.75,6.021,5.776,5.776,0,0,0,4.024-1.579,5.944,5.944,0,0,0,1.741-4.452Zm-2.9,9.07q-.084,3.18-2.867,3.209-2.8-.028-2.852-3.209v-8.893q.057-3.15,2.852-3.209,2.783.057,2.867,3.209Z"/>
          <polygon class="cls-2" points="262.208 156.851 262.208 135.914 259.31 135.914 256.425 138.069 256.425 141.262 259.31 139.08 259.31 156.851 262.208 156.851"/>
          <path class="cls-2" d="M322.956,197.5A5.592,5.592,0,0,0,319,199.051a5.714,5.714,0,0,0-1.8,4.459v9.253a5.763,5.763,0,0,0,5.75,6.022,5.78,5.78,0,0,0,4.024-1.579,5.945,5.945,0,0,0,1.74-4.452V203.52a5.962,5.962,0,0,0-1.74-4.466A5.673,5.673,0,0,0,322.956,197.5Zm2.866,15.087q-.084,3.182-2.866,3.209-2.8-.027-2.852-3.209V203.7q.056-3.151,2.852-3.209,2.782.057,2.866,3.209Z"/>
          <polygon class="cls-2" points="100.557 110.381 103.442 108.199 103.442 125.97 106.34 125.97 106.34 105.033 103.442 105.033 100.557 107.188 100.557 110.381"/>
          <path class="cls-2" d="M110.5,49.116a5.96,5.96,0,0,0-1.74-4.466A5.674,5.674,0,0,0,104.74,43.1a5.594,5.594,0,0,0-3.954,1.549,5.716,5.716,0,0,0-1.8,4.459v9.253a5.763,5.763,0,0,0,5.75,6.021,5.771,5.771,0,0,0,4.024-1.579,5.943,5.943,0,0,0,1.74-4.452Zm-2.9,9.07q-.085,3.18-2.867,3.209-2.8-.027-2.852-3.209V49.294q.055-3.151,2.852-3.209,2.783.057,2.867,3.209Z"/>
          <polygon class="cls-2" points="106.34 95.089 106.34 74.152 103.442 74.152 100.557 76.307 100.557 79.501 103.442 77.318 103.442 95.089 106.34 95.089"/>
          <path class="cls-2" d="M73.566,64.38A5.771,5.771,0,0,0,77.59,62.8a5.944,5.944,0,0,0,1.741-4.452V51.638q-1.463,1.145-2.9,2.321v4.227q-.084,3.18-2.867,3.209a2.587,2.587,0,0,1-2.8-2.566q-1.217,1.095-2.414,2.211A4.959,4.959,0,0,0,69.612,62.8,5.69,5.69,0,0,0,73.566,64.38Z"/>
          <polygon class="cls-2" points="106.34 187.732 106.34 166.795 103.442 166.795 100.557 168.95 100.557 172.143 103.442 169.961 103.442 187.732 106.34 187.732"/>
          <path class="cls-2" d="M110.5,141.758a5.96,5.96,0,0,0-1.74-4.465,5.669,5.669,0,0,0-4.024-1.552,5.59,5.59,0,0,0-3.954,1.549,5.716,5.716,0,0,0-1.8,4.459V151a5.763,5.763,0,0,0,5.75,6.021,5.776,5.776,0,0,0,4.024-1.579,5.943,5.943,0,0,0,1.74-4.452Zm-2.9,9.071q-.085,3.18-2.867,3.209-2.8-.029-2.852-3.209v-8.893q.055-3.15,2.852-3.209,2.783.057,2.867,3.209Z"/>
          <path class="cls-2" d="M110.5,203.52a5.962,5.962,0,0,0-1.74-4.466,5.673,5.673,0,0,0-4.024-1.551,5.593,5.593,0,0,0-3.954,1.548,5.717,5.717,0,0,0-1.8,4.459v9.253a5.763,5.763,0,0,0,5.75,6.022,5.78,5.78,0,0,0,4.024-1.579,5.945,5.945,0,0,0,1.74-4.452Zm-2.9,9.07q-.085,3.182-2.867,3.209-2.8-.027-2.852-3.209V203.7q.055-3.151,2.852-3.209,2.783.057,2.867,3.209Z"/>
          <path class="cls-2" d="M63.744,172.639A5.962,5.962,0,0,0,62,168.173a5.676,5.676,0,0,0-4.024-1.551,5.591,5.591,0,0,0-3.955,1.549,5.715,5.715,0,0,0-1.8,4.459v9.252a5.761,5.761,0,0,0,5.75,6.022A5.784,5.784,0,0,0,62,186.325a5.945,5.945,0,0,0,1.74-4.452Zm-2.9,9.071q-.084,3.18-2.866,3.209-2.8-.029-2.852-3.209v-8.893q.055-3.151,2.852-3.209,2.783.057,2.866,3.209Z"/>
          <polygon class="cls-2" points="75.166 135.914 72.268 135.914 69.383 138.069 69.383 141.262 72.268 139.08 72.268 156.851 75.166 156.851 75.166 135.914"/>
          <path class="cls-2" d="M52.23,89.24a5.761,5.761,0,0,0,5.75,6.021A5.779,5.779,0,0,0,62,93.682a5.943,5.943,0,0,0,1.74-4.452V80A5.96,5.96,0,0,0,62,75.531a5.906,5.906,0,0,0-6.49-1q-1.557,1.837-3.059,3.726a7.493,7.493,0,0,0-.225,1.727Zm2.9-9.066q.055-3.15,2.852-3.209,2.783.059,2.866,3.209v8.893q-.084,3.18-2.866,3.209-2.8-.028-2.852-3.209Z"/>
          <path class="cls-2" d="M63.744,203.52A5.962,5.962,0,0,0,62,199.054,5.676,5.676,0,0,0,57.98,197.5a5.594,5.594,0,0,0-3.955,1.548,5.717,5.717,0,0,0-1.8,4.459v9.253a5.761,5.761,0,0,0,5.75,6.022A5.784,5.784,0,0,0,62,217.206a5.945,5.945,0,0,0,1.74-4.452Zm-2.9,9.07q-.084,3.182-2.866,3.209-2.8-.027-2.852-3.209V203.7q.055-3.151,2.852-3.209,2.783.057,2.866,3.209Z"/>
          <polygon class="cls-2" points="59.579 280.374 59.579 259.436 56.681 259.436 53.796 261.591 53.796 264.785 56.681 262.602 56.681 280.374 59.579 280.374"/>
          <path class="cls-2" d="M63.744,243.633V234.4A5.96,5.96,0,0,0,62,229.934a5.677,5.677,0,0,0-4.024-1.552,5.6,5.6,0,0,0-3.955,1.549,5.717,5.717,0,0,0-1.8,4.459v9.253a5.761,5.761,0,0,0,5.75,6.022A5.784,5.784,0,0,0,62,248.086,5.946,5.946,0,0,0,63.744,243.633Zm-2.9-.163q-.084,3.18-2.866,3.209-2.8-.027-2.852-3.209v-8.892q.055-3.151,2.852-3.209,2.783.057,2.866,3.209Z"/>
          <path class="cls-2" d="M63.744,141.758A5.96,5.96,0,0,0,62,137.293a5.673,5.673,0,0,0-4.024-1.552,5.591,5.591,0,0,0-3.955,1.549,5.715,5.715,0,0,0-1.8,4.459V151a5.761,5.761,0,0,0,5.75,6.021A5.779,5.779,0,0,0,62,155.444a5.943,5.943,0,0,0,1.74-4.452Zm-2.9,9.071q-.084,3.18-2.866,3.209-2.8-.029-2.852-3.209v-8.893q.055-3.15,2.852-3.209,2.783.057,2.866,3.209Z"/>
          <path class="cls-2" d="M89.153,95.261a5.776,5.776,0,0,0,4.024-1.579,5.948,5.948,0,0,0,1.741-4.452V80a5.965,5.965,0,0,0-1.741-4.466,5.674,5.674,0,0,0-4.024-1.552A5.594,5.594,0,0,0,85.2,75.528a5.716,5.716,0,0,0-1.8,4.459V89.24a5.763,5.763,0,0,0,5.75,6.021ZM86.3,80.174q.055-3.15,2.852-3.209,2.782.059,2.867,3.209v8.893q-.086,3.18-2.867,3.209-2.8-.028-2.852-3.209Z"/>
          <path class="cls-2" d="M83.4,120.121a5.763,5.763,0,0,0,5.75,6.021,5.776,5.776,0,0,0,4.024-1.579,5.948,5.948,0,0,0,1.741-4.452v-9.233a5.965,5.965,0,0,0-1.741-4.466,5.674,5.674,0,0,0-4.024-1.552,5.594,5.594,0,0,0-3.954,1.549,5.716,5.716,0,0,0-1.8,4.459Zm2.9-9.066q.055-3.15,2.852-3.209,2.782.057,2.867,3.209v8.893q-.086,3.18-2.867,3.209-2.8-.028-2.852-3.209Z"/>
          <polygon class="cls-2" points="90.753 187.732 90.753 166.795 87.855 166.795 84.97 168.95 84.97 172.143 87.855 169.961 87.855 187.732 90.753 187.732"/>
          <path class="cls-2" d="M110.5,234.4a5.96,5.96,0,0,0-1.74-4.466,5.674,5.674,0,0,0-4.024-1.552,5.594,5.594,0,0,0-3.954,1.549,5.717,5.717,0,0,0-1.8,4.459v9.253a5.763,5.763,0,0,0,5.75,6.022,5.78,5.78,0,0,0,4.024-1.579,5.946,5.946,0,0,0,1.74-4.453Zm-2.9,9.07q-.085,3.18-2.867,3.209-2.8-.027-2.852-3.209v-8.892q.055-3.151,2.852-3.209,2.783.057,2.867,3.209Z"/>
          <polygon class="cls-2" points="75.166 105.033 72.268 105.033 69.383 107.188 69.383 110.381 72.268 108.199 72.268 125.97 75.166 125.97 75.166 105.033"/>
          <polygon class="cls-2" points="90.753 135.914 87.855 135.914 84.97 138.069 84.97 141.262 87.855 139.08 87.855 156.851 90.753 156.851 90.753 135.914"/>
          <path class="cls-2" d="M79.331,89.23V80a5.961,5.961,0,0,0-1.741-4.466,5.674,5.674,0,0,0-4.024-1.552,5.594,5.594,0,0,0-3.954,1.549,5.719,5.719,0,0,0-1.8,4.459V89.24a5.763,5.763,0,0,0,5.75,6.021,5.776,5.776,0,0,0,4.024-1.579A5.944,5.944,0,0,0,79.331,89.23Zm-2.9-.163q-.084,3.18-2.867,3.209-2.8-.028-2.852-3.209V80.174q.057-3.15,2.852-3.209,2.782.059,2.867,3.209Z"/>
          <path class="cls-2" d="M83.4,212.763a5.763,5.763,0,0,0,5.75,6.022,5.78,5.78,0,0,0,4.024-1.579,5.949,5.949,0,0,0,1.741-4.452V203.52a5.966,5.966,0,0,0-1.741-4.466,5.673,5.673,0,0,0-4.024-1.551,5.593,5.593,0,0,0-3.954,1.548,5.717,5.717,0,0,0-1.8,4.459Zm2.9-9.065q.055-3.151,2.852-3.209,2.782.057,2.867,3.209v8.892q-.086,3.182-2.867,3.209-2.8-.027-2.852-3.209Z"/>
          <path class="cls-2" d="M110.5,274.514v-9.233a5.96,5.96,0,0,0-1.74-4.466,5.674,5.674,0,0,0-4.024-1.552,5.594,5.594,0,0,0-3.954,1.549,5.716,5.716,0,0,0-1.8,4.459v9.253a5.764,5.764,0,0,0,5.75,6.022,5.776,5.776,0,0,0,4.024-1.58A5.943,5.943,0,0,0,110.5,274.514Zm-2.9-.163q-.085,3.18-2.867,3.209-2.8-.027-2.852-3.209v-8.892q.055-3.151,2.852-3.209,2.783.057,2.867,3.209Z"/>
          <polygon class="cls-2" points="90.753 228.555 87.855 228.555 84.97 230.711 84.97 233.904 87.855 231.721 87.855 249.493 90.753 249.493 90.753 228.555"/>
          <polygon class="cls-2" points="90.753 311.255 90.753 290.317 87.855 290.317 84.97 292.472 84.97 295.666 87.855 293.483 87.855 311.255 90.753 311.255"/>
          <polygon class="cls-2" points="90.753 259.436 87.855 259.436 84.97 261.591 84.97 264.785 87.855 262.602 87.855 280.374 90.753 280.374 90.753 259.436"/>
          <path class="cls-2" d="M63.744,110.878A5.96,5.96,0,0,0,62,106.412a5.677,5.677,0,0,0-4.024-1.552,5.6,5.6,0,0,0-3.955,1.549,5.715,5.715,0,0,0-1.8,4.459v9.253a5.761,5.761,0,0,0,5.75,6.021A5.779,5.779,0,0,0,62,124.563a5.943,5.943,0,0,0,1.74-4.452Zm-2.9,9.07q-.084,3.18-2.866,3.209-2.8-.028-2.852-3.209v-8.893q.055-3.15,2.852-3.209,2.783.057,2.866,3.209Z"/>
          <path class="cls-2" d="M157.265,327.043a5.96,5.96,0,0,0-1.74-4.466,5.675,5.675,0,0,0-4.024-1.552,5.591,5.591,0,0,0-3.954,1.549,5.712,5.712,0,0,0-1.8,4.459v9.253a8.164,8.164,0,0,0,.082.909c1.042.218,2.092.42,3.143.618a4.472,4.472,0,0,1-.327-1.7V327.22q.055-3.15,2.852-3.209,2.782.057,2.866,3.209v8.893a3.48,3.48,0,0,1-.871,2.492c1.06.17,2.119.325,3.178.473a7.07,7.07,0,0,0,.591-2.8Z"/>
          <path class="cls-2" d="M172.852,336.276v-9.233a5.961,5.961,0,0,0-1.741-4.466,5.674,5.674,0,0,0-4.024-1.552,5.594,5.594,0,0,0-3.954,1.549,5.719,5.719,0,0,0-1.8,4.459v9.253a6.223,6.223,0,0,0,.973,3.493q4.525.474,9.023.691A6.056,6.056,0,0,0,172.852,336.276Zm-2.9-.163q-.084,3.18-2.867,3.209-2.8-.029-2.852-3.209V327.22q.057-3.15,2.852-3.209,2.783.057,2.867,3.209Z"/>
          <path class="cls-2" d="M196.963,321.2l-2.885,2.155v3.194l2.885-2.183v15.308c.968-.108,1.934-.221,2.9-.346V321.2Z"/>
          <path class="cls-2" d="M121.927,330.249V321.2h-2.9l-2.885,2.155v3.194l2.885-2.183v4.768C119.989,329.514,120.957,329.884,121.927,330.249Z"/>
          <path class="cls-2" d="M134.616,321.2l-2.885,2.155v3.194l2.885-2.183v10.067q1.441.411,2.9.794V321.2Z"/>
          <path class="cls-2" d="M211,336.113V327.22q.055-3.15,2.852-3.209,2.782.057,2.866,3.209v8.893c0,.037-.007.067-.008.1q1.457-.351,2.906-.726v-8.448a5.96,5.96,0,0,0-1.74-4.466,5.674,5.674,0,0,0-4.024-1.552,5.593,5.593,0,0,0-3.954,1.549,5.712,5.712,0,0,0-1.8,4.459v9.253a7.468,7.468,0,0,0,.223,1.709c.956-.176,1.91-.355,2.861-.548A5.069,5.069,0,0,1,211,336.113Z"/>
          <path class="cls-2" d="M288.93,296.339q.055-3.15,2.852-3.209a3.3,3.3,0,0,1,1.408.32c.711-.708,1.42-1.419,2.119-2.141a5.686,5.686,0,0,0-3.527-1.165,5.594,5.594,0,0,0-3.954,1.549,5.712,5.712,0,0,0-1.8,4.459v4.011q1.464-1.291,2.9-2.618Z"/>
          <path class="cls-2" d="M338.143,207.674c.6-3.34,1.086-6.673,1.477-10h-2.375l-2.886,2.156v3.193l2.886-2.183v11.408C337.563,210.733,337.866,209.209,338.143,207.674Z"/>
          <path class="cls-2" d="M326.98,229.934a5.674,5.674,0,0,0-4.024-1.552A5.593,5.593,0,0,0,319,229.931a5.714,5.714,0,0,0-1.8,4.459v9.253a5.763,5.763,0,0,0,5.75,6.022,6.287,6.287,0,0,0,1.632-.25q2.2-4.56,4.132-9.292V234.4A5.96,5.96,0,0,0,326.98,229.934Zm-1.158,13.536q-.084,3.18-2.866,3.209-2.8-.027-2.852-3.209v-8.892q.056-3.151,2.852-3.209,2.782.057,2.866,3.209Z"/>
          <path class="cls-2" d="M306.071,259.436l-2.885,2.155v3.194l2.885-2.183V279q1.476-1.87,2.9-3.789V259.436Z"/>
          <path class="cls-2" d="M104.74,321.025a5.761,5.761,0,0,0-2.2.421q3.806,2.041,7.742,3.889a5.3,5.3,0,0,0-1.516-2.758A5.674,5.674,0,0,0,104.74,321.025Z"/>
          <path class="cls-2" d="M243.724,321.2l-2.886,2.155v3.194l2.886-2.183v2.778c.971-.425,1.936-.864,2.9-1.308V321.2Z"/>
          <path class="cls-2" d="M26.806,231.369q2.783.057,2.866,3.209v6.388q1.13,2.71,2.358,5.372a7.16,7.16,0,0,0,.54-2.7V234.4a5.96,5.96,0,0,0-1.74-4.466,5.674,5.674,0,0,0-4.024-1.552,5.892,5.892,0,0,0-1.684.26q.457,1.411.943,2.813A3.953,3.953,0,0,1,26.806,231.369Z"/>
          <polygon class="cls-2" points="43.993 156.851 43.993 135.914 41.095 135.914 38.21 138.069 38.21 141.262 41.095 139.08 41.095 156.851 43.993 156.851"/>
          <polygon class="cls-2" points="38.21 172.143 41.095 169.961 41.095 187.732 43.993 187.732 43.993 166.795 41.095 166.795 38.21 168.95 38.21 172.143"/>
          <path class="cls-2" d="M46.417,248.086a5.946,5.946,0,0,0,1.74-4.453V234.4a5.96,5.96,0,0,0-1.74-4.466,5.674,5.674,0,0,0-4.024-1.552,5.593,5.593,0,0,0-3.954,1.549,5.714,5.714,0,0,0-1.8,4.459v9.253a5.763,5.763,0,0,0,5.75,6.022A5.78,5.78,0,0,0,46.417,248.086Zm-6.876-4.616v-8.892q.056-3.151,2.852-3.209,2.782.057,2.866,3.209v8.892q-.084,3.18-2.866,3.209Q39.6,246.652,39.541,243.47Z"/>
          <path class="cls-2" d="M32.57,181.873v-9.234a5.962,5.962,0,0,0-1.74-4.466,5.673,5.673,0,0,0-4.024-1.551,5.588,5.588,0,0,0-3.954,1.549,5.712,5.712,0,0,0-1.8,4.459v9.252a5.763,5.763,0,0,0,5.75,6.022,5.78,5.78,0,0,0,4.024-1.579A5.945,5.945,0,0,0,32.57,181.873Zm-2.9-.163q-.084,3.18-2.866,3.209-2.8-.029-2.852-3.209v-8.893q.055-3.151,2.852-3.209,2.783.057,2.866,3.209Z"/>
          <polygon class="cls-2" points="38.21 203.024 41.095 200.841 41.095 218.613 43.993 218.613 43.993 197.675 41.095 197.675 38.21 199.831 38.21 203.024"/>
          <polygon class="cls-2" points="28.406 156.851 28.406 135.914 25.508 135.914 22.623 138.069 22.623 141.262 25.508 139.08 25.508 156.851 28.406 156.851"/>
          <path class="cls-2" d="M30.83,124.563a5.943,5.943,0,0,0,1.74-4.452v-9.233c0-.166-.033-.309-.044-.468q-1.5,3.2-2.854,6.487v3.051c-.051,1.945-.868,3-2.433,3.172-.36.982-.715,1.968-1.057,2.961a6.048,6.048,0,0,0,.624.061A5.776,5.776,0,0,0,30.83,124.563Z"/>
          <path class="cls-2" d="M46.417,260.815a5.674,5.674,0,0,0-4.024-1.552,5.584,5.584,0,0,0-3.166.935q.734,1.262,1.492,2.51a3.093,3.093,0,0,1,1.674-.458q2.782.057,2.866,3.209v4.321c.947,1.393,1.909,2.775,2.9,4.138v-8.637A5.96,5.96,0,0,0,46.417,260.815Z"/>
          <polygon class="cls-2" points="28.406 218.613 28.406 197.675 25.508 197.675 22.623 199.831 22.623 203.024 25.508 200.841 25.508 218.613 28.406 218.613"/>
          <path class="cls-2" d="M43.993,95.089V89.914q-1.485,2.25-2.9,4.555v.62Z"/>
          <path class="cls-2" d="M75.166,302.913v-12.6h-2.9l-2.885,2.155v3.194l2.885-2.183v6.938Q73.7,301.683,75.166,302.913Z"/>
          <path class="cls-2" d="M48.157,110.878a5.96,5.96,0,0,0-1.74-4.466,5.674,5.674,0,0,0-4.024-1.552,5.593,5.593,0,0,0-3.954,1.549,5.712,5.712,0,0,0-1.8,4.459v9.253a5.763,5.763,0,0,0,5.75,6.021,5.776,5.776,0,0,0,4.024-1.579,5.943,5.943,0,0,0,1.74-4.452Zm-2.9,9.07q-.084,3.18-2.866,3.209-2.8-.028-2.852-3.209v-8.893q.056-3.15,2.852-3.209,2.782.057,2.866,3.209Z"/>
          <path class="cls-2" d="M280.219,291.7a5.674,5.674,0,0,0-4.024-1.552,5.594,5.594,0,0,0-3.954,1.549,5.716,5.716,0,0,0-1.8,4.459V305.4a5.7,5.7,0,0,0,1.8,4.444,6.194,6.194,0,0,0,.8.629q1.423-1.017,2.824-2.065c-1.641-.14-2.49-1.193-2.525-3.181v-8.893q.055-3.15,2.852-3.209,2.783.058,2.867,3.209v8.893a6.089,6.089,0,0,1-.073.789q1.5-1.179,2.971-2.393v-7.466A5.965,5.965,0,0,0,280.219,291.7Z"/>
          <path class="cls-2" d="M114.577,274.524a5.764,5.764,0,0,0,5.75,6.022,5.776,5.776,0,0,0,4.024-1.58,5.943,5.943,0,0,0,1.74-4.452v-9.233a5.96,5.96,0,0,0-1.74-4.466,5.674,5.674,0,0,0-4.024-1.552,5.593,5.593,0,0,0-3.954,1.549,5.712,5.712,0,0,0-1.8,4.459Zm2.9-9.065q.056-3.151,2.852-3.209,2.782.057,2.866,3.209v8.892q-.084,3.18-2.866,3.209-2.8-.027-2.852-3.209Z"/>
          <path class="cls-2" d="M141.678,234.4a5.96,5.96,0,0,0-1.74-4.466,5.674,5.674,0,0,0-4.024-1.552,5.593,5.593,0,0,0-3.954,1.549,5.714,5.714,0,0,0-1.8,4.459v9.253a5.763,5.763,0,0,0,5.75,6.022,5.78,5.78,0,0,0,4.024-1.579,5.946,5.946,0,0,0,1.74-4.453Zm-2.9,9.07q-.084,3.18-2.866,3.209-2.8-.027-2.852-3.209v-8.892q.055-3.151,2.852-3.209,2.783.057,2.866,3.209Z"/>
          <path class="cls-2" d="M114.577,305.4a5.763,5.763,0,0,0,5.75,6.021,5.776,5.776,0,0,0,4.024-1.579,5.943,5.943,0,0,0,1.74-4.452v-9.233a5.96,5.96,0,0,0-1.74-4.466,5.674,5.674,0,0,0-4.024-1.552,5.593,5.593,0,0,0-3.954,1.549,5.712,5.712,0,0,0-1.8,4.459Zm2.9-9.066q.056-3.15,2.852-3.209,2.782.058,2.866,3.209v8.893q-.084,3.18-2.866,3.209-2.8-.028-2.852-3.209Z"/>
          <path class="cls-2" d="M141.678,172.639a5.962,5.962,0,0,0-1.74-4.466,5.673,5.673,0,0,0-4.024-1.551,5.588,5.588,0,0,0-3.954,1.549,5.712,5.712,0,0,0-1.8,4.459v9.252a5.763,5.763,0,0,0,5.75,6.022,5.78,5.78,0,0,0,4.024-1.579,5.945,5.945,0,0,0,1.74-4.452Zm-2.9,9.071q-.084,3.18-2.866,3.209-2.8-.029-2.852-3.209v-8.893q.055-3.151,2.852-3.209,2.783.057,2.866,3.209Z"/>
          <path class="cls-2" d="M141.678,203.52a5.962,5.962,0,0,0-1.74-4.466,5.673,5.673,0,0,0-4.024-1.551,5.592,5.592,0,0,0-3.954,1.548,5.714,5.714,0,0,0-1.8,4.459v9.253a5.763,5.763,0,0,0,5.75,6.022,5.78,5.78,0,0,0,4.024-1.579,5.945,5.945,0,0,0,1.74-4.452Zm-2.9,9.07q-.084,3.182-2.866,3.209-2.8-.027-2.852-3.209V203.7q.055-3.151,2.852-3.209,2.783.057,2.866,3.209Z"/>
          <polygon class="cls-2" points="137.514 64.209 137.514 43.271 134.616 43.271 131.731 45.426 131.731 48.62 134.616 46.437 134.616 64.209 137.514 64.209"/>
          <polygon class="cls-2" points="137.514 125.97 137.514 105.033 134.616 105.033 131.731 107.188 131.731 110.381 134.616 108.199 134.616 125.97 137.514 125.97"/>
          <path class="cls-2" d="M141.678,80a5.96,5.96,0,0,0-1.74-4.466,5.674,5.674,0,0,0-4.024-1.552,5.593,5.593,0,0,0-3.954,1.549,5.712,5.712,0,0,0-1.8,4.459V89.24a5.763,5.763,0,0,0,5.75,6.021,5.776,5.776,0,0,0,4.024-1.579,5.943,5.943,0,0,0,1.74-4.452Zm-2.9,9.07q-.084,3.18-2.866,3.209-2.8-.028-2.852-3.209V80.174q.055-3.15,2.852-3.209,2.783.059,2.866,3.209Z"/>
          <path class="cls-2" d="M157.265,49.116a5.96,5.96,0,0,0-1.74-4.466A5.675,5.675,0,0,0,151.5,43.1a5.591,5.591,0,0,0-3.954,1.549,5.712,5.712,0,0,0-1.8,4.459v9.253a5.763,5.763,0,0,0,5.75,6.021,5.773,5.773,0,0,0,4.024-1.579,5.943,5.943,0,0,0,1.74-4.452Zm-2.9,9.07q-.084,3.18-2.866,3.209-2.8-.027-2.852-3.209V49.294q.055-3.151,2.852-3.209,2.782.057,2.866,3.209Z"/>
          <polygon class="cls-2" points="121.927 249.493 121.927 228.555 119.029 228.555 116.144 230.711 116.144 233.904 119.029 231.721 119.029 249.493 121.927 249.493"/>
          <path class="cls-2" d="M120.327,64.38a5.771,5.771,0,0,0,4.024-1.579,5.943,5.943,0,0,0,1.74-4.452V49.116a5.96,5.96,0,0,0-1.74-4.466,5.674,5.674,0,0,0-4.024-1.552,5.593,5.593,0,0,0-3.954,1.549,5.712,5.712,0,0,0-1.8,4.459v9.253a5.763,5.763,0,0,0,5.75,6.021Zm-2.852-15.086q.056-3.151,2.852-3.209,2.782.057,2.866,3.209v8.892q-.084,3.18-2.866,3.209-2.8-.027-2.852-3.209Z"/>
          <path class="cls-2" d="M141.678,274.514v-9.233a5.96,5.96,0,0,0-1.74-4.466,5.674,5.674,0,0,0-4.024-1.552,5.593,5.593,0,0,0-3.954,1.549,5.712,5.712,0,0,0-1.8,4.459v9.253a5.764,5.764,0,0,0,5.75,6.022,5.776,5.776,0,0,0,4.024-1.58A5.943,5.943,0,0,0,141.678,274.514Zm-2.9-.163q-.084,3.18-2.866,3.209-2.8-.027-2.852-3.209v-8.892q.055-3.151,2.852-3.209,2.783.057,2.866,3.209Z"/>
          <path class="cls-2" d="M114.577,89.24a5.763,5.763,0,0,0,5.75,6.021,5.776,5.776,0,0,0,4.024-1.579,5.943,5.943,0,0,0,1.74-4.452V80a5.96,5.96,0,0,0-1.74-4.466,5.674,5.674,0,0,0-4.024-1.552,5.593,5.593,0,0,0-3.954,1.549,5.712,5.712,0,0,0-1.8,4.459Zm2.9-9.066q.056-3.15,2.852-3.209,2.782.059,2.866,3.209v8.893q-.084,3.18-2.866,3.209-2.8-.028-2.852-3.209Z"/>
          <polygon class="cls-2" points="137.514 311.255 137.514 290.317 134.616 290.317 131.731 292.472 131.731 295.666 134.616 293.483 134.616 311.255 137.514 311.255"/>
          <path class="cls-2" d="M114.577,120.121a5.763,5.763,0,0,0,5.75,6.021,5.776,5.776,0,0,0,4.024-1.579,5.943,5.943,0,0,0,1.74-4.452v-9.233a5.96,5.96,0,0,0-1.74-4.466,5.674,5.674,0,0,0-4.024-1.552,5.593,5.593,0,0,0-3.954,1.549,5.712,5.712,0,0,0-1.8,4.459Zm2.9-9.066q.056-3.15,2.852-3.209,2.782.057,2.866,3.209v8.893q-.084,3.18-2.866,3.209-2.8-.028-2.852-3.209Z"/>
          <polygon class="cls-2" points="121.927 197.675 119.029 197.675 116.144 199.831 116.144 203.024 119.029 200.841 119.029 218.613 121.927 218.613 121.927 197.675"/>
          <polygon class="cls-2" points="121.927 166.795 119.029 166.795 116.144 168.95 116.144 172.143 119.029 169.961 119.029 187.732 121.927 187.732 121.927 166.795"/>
          <path class="cls-2" d="M137.514,33.328v-10.7q-1.454.387-2.9.8v9.9Z"/>
          <polygon class="cls-2" points="121.927 135.914 119.029 135.914 116.144 138.069 116.144 141.262 119.029 139.08 119.029 156.851 121.927 156.851 121.927 135.914"/>
          <polygon class="cls-2" points="131.731 141.262 134.616 139.08 134.616 156.851 137.514 156.851 137.514 135.914 134.616 135.914 131.731 138.069 131.731 141.262"/>
          <polygon class="cls-2" points="75.166 249.493 75.166 228.555 72.268 228.555 69.383 230.711 69.383 233.904 72.268 231.721 72.268 249.493 75.166 249.493"/>
          <polygon class="cls-2" points="106.34 311.255 106.34 290.317 103.442 290.317 100.557 292.472 100.557 295.666 103.442 293.483 103.442 311.255 106.34 311.255"/>
          <polygon class="cls-2" points="75.166 166.795 72.268 166.795 69.383 168.95 69.383 172.143 72.268 169.961 72.268 187.732 75.166 187.732 75.166 166.795"/>
          <path class="cls-2" d="M120.327,33.5a5.78,5.78,0,0,0,4.024-1.579,5.946,5.946,0,0,0,1.74-4.453V26.131q-1.453.505-2.9,1.038v.136q-.084,3.18-2.866,3.209a2.538,2.538,0,0,1-2.434-1.29c-.9.367-1.788.747-2.677,1.13a4.936,4.936,0,0,0,1.157,1.568A5.694,5.694,0,0,0,120.327,33.5Z"/>
          <polygon class="cls-2" points="75.166 197.675 72.268 197.675 69.383 199.831 69.383 203.024 72.268 200.841 72.268 218.613 75.166 218.613 75.166 197.675"/>
          <polygon class="cls-2" points="75.166 280.374 75.166 259.436 72.268 259.436 69.383 261.591 69.383 264.785 72.268 262.602 72.268 280.374 75.166 280.374"/>
        </g>
        <g>
          <path class="cls-3" d="M73.121,408.229v25.115H62.273V407.811c0-4.848.523-10.255-5.721-10.255H51.843v-8.441h8.3C72.179,389.115,73.121,397,73.121,408.229Z"/>
          <path class="cls-3" d="M92.413,389.115v24.591H81.565V389.115Z"/>
          <path class="cls-3" d="M128.483,406.207v10.115c0,11.965-3.732,17.022-13.533,17.022h-13.6v-8.476h12.313c3.488,0,4.779-2.267,4.779-9.034v-9.871c0-7.012-1.361-8.826-4.884-8.826h-3.418v16.395h-8.86V389.115H114.95C124.751,389.115,128.483,394.242,128.483,406.207Z"/>
          <path class="cls-3" d="M162.912,389.115s.175,18,0,28.428c-.244,9.907-4.709,15.8-15.557,15.8H137.8l-3.069-44.229Zm-9.383,7.569h-8.65l2.127,29.16H148.3c3.941,0,5.232-3.941,5.232-11.964Z"/>
          <path class="cls-3" d="M209.131,444.193H198.318V397.556H186.632v-8.441h22.5Z"/>
          <path class="cls-3" d="M238.154,408.229v25.115H227.306V407.811c0-4.848.523-10.255-5.72-10.255h-4.709v-8.441h8.3C237.212,389.115,238.154,397,238.154,408.229Z"/>
          <path class="cls-3" d="M273.073,389.115V411.16c0,11.755-.174,16.29-14.511,20.127-8.2,2.232-12.767,3.174-12.767,3.174l-1.778-7.709,5.581-1.605-4.116-36.032h9.731l3.419,33.9c2.825-.837,4.6-.837,4.6-7.778V389.115Z"/>
          <path class="cls-3" d="M295.154,424.206h4.6v-19.22c0-4.953-.7-7.325-4.779-7.43h-1.6l-4.57,35.788h-9.7l5.2-35.09h-3.838v-9.139h16.395c9.8,0,12.557,4.465,12.453,18.87v25.359H295.154Z"/>
        </g>
        <g>
          <path class="cls-4" d="M171.209,265,129.22,208.266c-.192-.02-47.486,27.221-47.31,26.857l44.077-80.578a.4.4,0,0,1,.685-.055L156.946,185.9a.4.4,0,0,0,.715-.32l-10.6-45.067,32.4-76.627L210.932,140.5l0,.028-10.6,45.051a.4.4,0,0,0,.715.32l30.273-31.411a.4.4,0,0,1,.686.055l44.076,80.578a.4.4,0,0,1-.577.507l-46.223-27.417c-.191.02-42.5,56.785-42.5,56.785L179,276.556Z"/>
          <path class="cls-5" d="M178.688,65.022l-31.632,74.815,10.6,45.068a.4.4,0,0,1-.715.319l-30.274-31.41a.4.4,0,0,0-.685.054L81.91,234.446c-.176.365,47.118-26.876,47.31-26.856l41.989,56.732,7.479,11.1Z"/>
        </g>
        <circle class="cls-6" cx="179.053" cy="179.053" r="174.852"/>
        <circle class="cls-7" cx="179.349" cy="178.948" r="162.058"/>
      </g>
    </g>
  </g>
</svg>
